<svg width="34" height="34" viewBox="0 0 34 34" fill="none" xmlns="http://www.w3.org/2000/svg">
<path d="M24.0833 12.75C24.0833 10.8714 23.337 9.06971 22.0087 7.74133C20.6803 6.41295 18.8786 5.66667 17 5.66667C15.1214 5.66667 13.3197 6.41295 11.9913 7.74133C10.6629 9.06971 9.91666 10.8714 9.91666 12.75C9.91666 13.1257 10.0659 13.4861 10.3316 13.7517C10.5973 14.0174 10.9576 14.1667 11.3333 14.1667C11.709 14.1667 12.0694 14.0174 12.3351 13.7517C12.6007 13.4861 12.75 13.1257 12.75 12.75C12.75 11.9094 12.9992 11.0877 13.4662 10.3888C13.9332 9.68992 14.597 9.14519 15.3736 8.82352C16.1502 8.50184 17.0047 8.41768 17.8291 8.58167C18.6535 8.74566 19.4108 9.15043 20.0052 9.7448C20.5996 10.3392 21.0043 11.0965 21.1683 11.9209C21.3323 12.7453 21.2482 13.5998 20.9265 14.3764C20.6048 15.153 20.0601 15.8168 19.3612 16.2838C18.6623 16.7507 17.8406 17 17 17C16.6243 17 16.2639 17.1493 15.9983 17.4149C15.7326 17.6806 15.5833 18.0409 15.5833 18.4167V21.25C15.5833 21.6257 15.7326 21.9861 15.9983 22.2517C16.2639 22.5174 16.6243 22.6667 17 22.6667C17.3757 22.6667 17.736 22.5174 18.0017 22.2517C18.2674 21.9861 18.4167 21.6257 18.4167 21.25V19.6917C20.0166 19.3651 21.4546 18.4957 22.4872 17.2308C23.5198 15.9658 24.0837 14.3829 24.0833 12.75Z" fill="#9B3737"/>
<path d="M17 28.3333C17.7824 28.3333 18.4167 27.6991 18.4167 26.9167C18.4167 26.1343 17.7824 25.5 17 25.5C16.2176 25.5 15.5833 26.1343 15.5833 26.9167C15.5833 27.6991 16.2176 28.3333 17 28.3333Z" fill="#9B3737"/>
</svg>
