<svg width="29" height="29" viewBox="0 0 29 29" fill="none" xmlns="http://www.w3.org/2000/svg">
<path d="M14.1353 2.3559C11.8056 2.3559 9.52816 3.04675 7.59104 4.34109C5.65392 5.63543 4.14412 7.47513 3.25256 9.62754C2.361 11.78 2.12773 14.1484 2.58224 16.4334C3.03675 18.7184 4.15864 20.8173 5.80602 22.4647C7.45341 24.112 9.5523 25.2339 11.8373 25.6884C14.1223 26.143 16.4907 25.9097 18.6431 25.0181C20.7956 24.1266 22.6352 22.6168 23.9296 20.6796C25.2239 18.7425 25.9148 16.4651 25.9148 14.1353C25.9148 12.5884 25.6101 11.0567 25.0181 9.62754C24.4262 8.19839 23.5585 6.89984 22.4647 5.80601C21.3708 4.71219 20.0723 3.84453 18.6431 3.25255C17.214 2.66058 15.6822 2.3559 14.1353 2.3559V2.3559ZM15.3133 18.8471C15.3133 19.1595 15.1892 19.4591 14.9683 19.68C14.7474 19.901 14.4478 20.0251 14.1353 20.0251C13.8229 20.0251 13.5233 19.901 13.3024 19.68C13.0815 19.4591 12.9574 19.1595 12.9574 18.8471V12.9574C12.9574 12.645 13.0815 12.3454 13.3024 12.1245C13.5233 11.9036 13.8229 11.7794 14.1353 11.7794C14.4478 11.7794 14.7474 11.9036 14.9683 12.1245C15.1892 12.3454 15.3133 12.645 15.3133 12.9574V18.8471ZM14.1353 10.6015C13.9024 10.6015 13.6746 10.5324 13.4809 10.403C13.2872 10.2736 13.1362 10.0896 13.0471 9.87434C12.9579 9.6591 12.9346 9.42225 12.98 9.19376C13.0255 8.96526 13.1377 8.75537 13.3024 8.59063C13.4672 8.42589 13.677 8.3137 13.9055 8.26825C14.134 8.2228 14.3709 8.24613 14.5861 8.33528C14.8014 8.42444 14.9853 8.57542 15.1148 8.76913C15.2442 8.96284 15.3133 9.19059 15.3133 9.42356C15.3133 9.73597 15.1892 10.0356 14.9683 10.2565C14.7474 10.4774 14.4478 10.6015 14.1353 10.6015Z" fill="#9B3737"/>
</svg>
