<svg width="715" height="884" viewBox="0 0 715 884" fill="none" xmlns="http://www.w3.org/2000/svg">
<path d="M338.091 812.495C86.2116 798.765 -178.285 469.239 164.164 199.028C190.598 176.693 274.108 120.051 396.668 72.1604C721.994 -54.7071 714 9.57487 714 103.5C714 243.5 711.5 608.5 711.5 812.495C711.5 963.859 589.971 826.225 338.091 812.495Z" fill="#F9C2C2" fill-opacity="0.3" stroke="#E8E8E8"/>
<path d="M417.313 678.12C417.313 680.001 416.755 681.84 415.709 683.404C414.664 684.968 413.178 686.187 411.439 686.907C409.701 687.626 407.788 687.813 405.943 687.445C404.098 687.077 402.404 686.17 401.074 684.839C399.745 683.508 398.84 681.812 398.475 679.966C398.11 678.121 398.3 676.208 399.022 674.471C399.744 672.734 400.965 671.25 402.53 670.206C404.096 669.163 405.936 668.608 407.817 668.61C410.337 668.614 412.752 669.618 414.532 671.4C416.313 673.183 417.313 675.6 417.313 678.12Z" fill="white"/>
<path d="M598.349 506.993C598.352 508.875 597.796 510.715 596.752 512.281C595.709 513.847 594.224 515.068 592.485 515.789C590.747 516.511 588.834 516.7 586.988 516.334C585.142 515.967 583.447 515.061 582.116 513.731C580.785 512.4 579.879 510.704 579.513 508.858C579.146 507.012 579.336 505.099 580.057 503.361C580.779 501.623 582 500.138 583.565 499.094C585.131 498.05 586.972 497.494 588.854 497.497C591.372 497.497 593.787 498.498 595.568 500.278C597.349 502.059 598.349 504.474 598.349 506.993Z" fill="white"/>
<path d="M687.412 399.837C687.412 401.717 686.854 403.556 685.809 405.12C684.764 406.683 683.279 407.902 681.541 408.622C679.804 409.342 677.892 409.53 676.047 409.163C674.202 408.796 672.508 407.891 671.178 406.561C669.848 405.231 668.942 403.536 668.576 401.692C668.209 399.847 668.397 397.935 669.117 396.197C669.836 394.46 671.055 392.975 672.619 391.93C674.183 390.885 676.021 390.327 677.902 390.327C679.151 390.325 680.389 390.57 681.543 391.047C682.698 391.525 683.747 392.225 684.63 393.108C685.514 393.992 686.214 395.041 686.691 396.195C687.169 397.35 687.413 398.587 687.412 399.837Z" fill="white"/>
<path d="M584.106 409.691C584.106 411.572 583.548 413.41 582.503 414.974C581.458 416.538 579.973 417.757 578.236 418.476C576.498 419.196 574.586 419.384 572.741 419.018C570.897 418.651 569.202 417.745 567.873 416.415C566.543 415.085 565.637 413.391 565.27 411.546C564.903 409.701 565.091 407.789 565.811 406.052C566.531 404.314 567.75 402.829 569.314 401.784C570.877 400.739 572.716 400.182 574.597 400.182C577.119 400.182 579.537 401.183 581.321 402.967C583.104 404.75 584.106 407.169 584.106 409.691Z" fill="white"/>
<path d="M503.863 280.825C503.866 282.706 503.31 284.546 502.267 286.112C501.224 287.677 499.74 288.898 498.002 289.62C496.265 290.342 494.353 290.532 492.507 290.167C490.661 289.801 488.966 288.897 487.634 287.567C486.303 286.238 485.396 284.544 485.028 282.699C484.66 280.854 484.848 278.941 485.567 277.203C486.286 275.464 487.505 273.978 489.069 272.933C490.633 271.887 492.472 271.329 494.354 271.329C495.602 271.327 496.838 271.572 497.992 272.048C499.145 272.524 500.194 273.223 501.077 274.105C501.96 274.987 502.661 276.035 503.139 277.188C503.617 278.341 503.863 279.577 503.863 280.825Z" fill="white"/>
<path d="M439.713 230.476C439.716 232.358 439.16 234.197 438.117 235.763C437.074 237.329 435.589 238.55 433.852 239.271C432.115 239.993 430.202 240.184 428.357 239.818C426.511 239.453 424.816 238.548 423.484 237.219C422.153 235.89 421.246 234.195 420.878 232.35C420.51 230.505 420.697 228.592 421.417 226.854C422.136 225.116 423.355 223.63 424.919 222.584C426.483 221.539 428.322 220.981 430.203 220.981C431.452 220.979 432.688 221.223 433.842 221.699C434.995 222.176 436.044 222.875 436.927 223.757C437.81 224.639 438.511 225.686 438.989 226.839C439.467 227.992 439.713 229.228 439.713 230.476Z" fill="white"/>
<path d="M262.403 355.368C262.403 357.249 261.845 359.088 260.799 360.652C259.754 362.216 258.268 363.435 256.529 364.154C254.791 364.874 252.878 365.061 251.033 364.693C249.188 364.325 247.494 363.418 246.164 362.087C244.835 360.755 243.93 359.06 243.565 357.214C243.2 355.369 243.39 353.456 244.112 351.719C244.834 349.981 246.055 348.497 247.62 347.454C249.186 346.411 251.026 345.855 252.907 345.858C254.155 345.858 255.391 346.104 256.544 346.582C257.697 347.06 258.744 347.761 259.626 348.644C260.508 349.527 261.207 350.576 261.684 351.729C262.16 352.883 262.404 354.119 262.403 355.368Z" fill="white"/>
<path d="M246.31 479.348C246.313 481.23 245.757 483.07 244.713 484.636C243.669 486.202 242.184 487.423 240.446 488.145C238.708 488.866 236.795 489.056 234.949 488.689C233.103 488.323 231.407 487.417 230.076 486.086C228.746 484.755 227.84 483.06 227.473 481.214C227.107 479.368 227.296 477.454 228.018 475.716C228.739 473.978 229.96 472.493 231.526 471.449C233.092 470.405 234.932 469.85 236.814 469.852C239.332 469.856 241.745 470.858 243.525 472.638C245.305 474.418 246.306 476.831 246.31 479.348Z" fill="white"/>
<path d="M265.591 553.546C265.591 555.427 265.033 557.266 263.987 558.83C262.942 560.394 261.456 561.613 259.717 562.333C257.979 563.052 256.066 563.239 254.221 562.871C252.376 562.503 250.682 561.596 249.353 560.265C248.023 558.934 247.119 557.238 246.753 555.393C246.388 553.547 246.578 551.635 247.3 549.897C248.022 548.16 249.243 546.676 250.808 545.632C252.374 544.589 254.214 544.034 256.095 544.036C257.343 544.036 258.579 544.283 259.732 544.761C260.885 545.239 261.933 545.939 262.815 546.822C263.696 547.706 264.396 548.754 264.872 549.908C265.348 551.061 265.593 552.298 265.591 553.546Z" fill="white"/>
<path d="M197.314 653.843C202.566 653.843 206.823 649.585 206.823 644.333C206.823 639.081 202.566 634.824 197.314 634.824C192.062 634.824 187.805 639.081 187.805 644.333C187.805 649.585 192.062 653.843 197.314 653.843Z" fill="white"/>
<path d="M256.095 553.546L197.314 644.333L407.803 678.12L588.854 506.993L574.597 409.691L677.902 399.809L494.354 280.838L252.907 355.368L236.814 479.348L256.095 553.546Z" stroke="white" stroke-linecap="round" stroke-linejoin="round"/>
<path d="M430.203 230.476L494.354 280.825" stroke="white" stroke-linecap="round" stroke-linejoin="round"/>
<path d="M407.803 678.12L391.504 577.975" stroke="white" stroke-linecap="round" stroke-linejoin="round"/>
<path d="M252.907 355.368L308.321 405.495" stroke="white" stroke-linecap="round" stroke-linejoin="round"/>
<path d="M552.956 781.218C592.432 781.218 624.434 776.04 624.434 769.652C624.434 763.265 592.432 758.087 552.956 758.087C513.479 758.087 481.477 763.265 481.477 769.652C481.477 776.04 513.479 781.218 552.956 781.218Z" fill="#C53F3F"/>
<path d="M517.491 558.861C575.81 500.542 575.81 405.989 517.491 347.671C459.172 289.352 364.619 289.352 306.301 347.671C247.982 405.989 247.982 500.542 306.301 558.861C364.619 617.18 459.172 617.18 517.491 558.861Z" fill="#515B60"/>
<path d="M517.491 558.861C575.81 500.542 575.81 405.989 517.491 347.671C459.172 289.352 364.619 289.352 306.301 347.671C247.982 405.989 247.982 500.542 306.301 558.861C364.619 617.18 459.172 617.18 517.491 558.861Z" stroke="#263238" stroke-linecap="round" stroke-linejoin="round"/>
<path d="M335.883 365.236C334.158 363.938 325.89 366.754 325.863 364.297C325.863 362.669 331.383 358.086 332.474 356.016C334.02 352.994 333.219 348.784 334.654 345.941C335.851 343.489 337.431 341.244 339.333 339.289C347.725 332.195 360.533 324.507 371.215 323.969C375.052 323.775 380.31 330.373 381.18 335.521C381.691 338.571 381.18 347.639 378.42 350.813C374.362 355.602 365.446 355.657 360.712 359.384C355.191 363.718 352.514 373.945 346.165 377.326C344.398 378.265 341.045 376.415 339.899 375.449C337.774 373.696 337.801 366.712 335.883 365.236Z" fill="#C53F3F" stroke="#263238" stroke-linecap="round" stroke-linejoin="round"/>
<path d="M508.956 518.931C507.966 518.696 506.929 518.758 505.975 519.111C503.504 520.491 499.902 525.915 498.632 528.565C497.169 531.587 495.416 538.143 495.554 540.986C495.637 542.573 496.548 545.72 497.859 545.886C498.853 546.01 501.475 544.05 502.4 542.946C507.175 537.232 512.889 528.344 512.461 521.264C512.406 520.187 510.032 519.193 508.956 518.931Z" fill="#C53F3F" stroke="#263238" stroke-linecap="round" stroke-linejoin="round"/>
<path d="M418.417 382.281C420.211 382.101 424.172 381.135 425.318 379.52C427.084 376.912 427.761 369.059 425.925 366.837C425.138 365.912 422.24 366.105 421.246 366.92C419.963 367.982 420.308 372.44 419.024 373.627C417.741 374.814 414.111 373.158 413.007 374.414C411.902 375.67 411.626 379.796 412.441 381.066C413.255 382.336 416.843 382.433 418.417 382.281Z" fill="#C53F3F" stroke="#263238" stroke-linecap="round" stroke-linejoin="round"/>
<path d="M507.493 338.557C506.056 339.666 505.095 341.279 504.802 343.07C504.733 344.285 507.203 347.79 506.899 348.867C506.126 351.503 499.998 353.366 496.824 351.71C495.872 351.199 495.044 348.301 494.133 347.666C490.282 344.989 482.953 346.797 479.227 346.576C477.45 346.63 475.671 346.524 473.913 346.258C467.606 344.326 461.05 337.798 454.591 337.536C451.403 337.412 444.185 341.994 441.935 345.361C438.809 350.137 437.084 355.693 436.952 361.399C436.952 363.773 439.106 368.81 440.983 370.08C442.86 371.35 448.118 371.612 449.843 370.08C451.044 369.045 450.354 364.67 451.334 363.414C452.314 362.158 456.302 359.756 457.476 360.847C461.05 364.201 461.906 373.489 459.753 377.547C457.448 381.894 447.856 386.38 442.887 384.061C441.052 383.206 442.57 376.346 441.01 374.704C439.451 373.061 434.758 371.943 433.24 373.324C431.39 375.076 434.537 381.867 433.033 384.006C431.349 386.38 424.683 385.635 422.405 387.429C420.722 388.809 417.879 392.646 417.672 394.827C417.492 396.69 421.577 399.864 420.57 401.451C419.19 403.742 412.068 399.505 410.315 401.576C407.983 404.336 409.667 413.279 412.289 415.515C414.249 417.199 420.653 417.075 422.764 415.515C424.283 414.356 423.358 409.277 424.89 408.159C426.905 406.696 432.232 409.387 434.551 408.794C436.4 408.325 439.188 404.446 441.038 404.778C443.522 405.219 447.11 410.229 447.58 412.81C447.939 414.729 443.591 418.828 445.013 420.153C446.765 421.767 452.645 418.358 453.514 416.164C454.619 413.404 448.38 407.579 449.374 404.791C449.797 404.17 450.368 403.664 451.035 403.32C451.703 402.975 452.446 402.802 453.197 402.818C456.799 403.673 458.994 413.859 462.624 414.88C465.191 415.612 469.662 410.367 472.285 410.988C475.349 411.72 480.29 417.309 481.242 420.373C481.905 422.513 481.076 427.633 479.572 428.972C474.41 433.568 464.79 434.644 457.724 434.203C454.356 433.982 447.511 431.235 445.04 428.834C443.329 427.164 442.97 421.257 441.052 420.139C436.055 417.24 428.106 417.71 422.613 419.518C412.951 422.72 401.11 431.939 395.658 440.91C393.698 444.168 395.658 452.89 393.712 456.092C393.091 457.1 390.303 457.666 389.765 458.715C388.108 461.903 388.55 470.142 390.33 473.234C394.236 479.416 400.036 484.17 406.865 486.787C413.641 489.106 422.971 485.407 430.148 486.994C432.425 487.505 437.325 490.155 438.581 492.349C440.223 495.234 437.684 502.811 439.244 505.723C440.513 508.124 447.525 508.042 448.477 510.374C452.01 518.793 443.577 530.124 444.861 539.109C445.302 542.146 449.995 546.866 450.381 549.737C451.196 555.064 448.242 562.282 450.312 567.071C451.693 570.204 459.67 571.46 462.665 569.832C469.138 566.45 476.246 558.28 479.227 551.765C481.987 545.817 479.627 536.584 482.636 531.339C485.079 527.198 492.904 525.142 495.499 520.919C499.364 514.667 496.382 503.17 500.012 496.642C502.855 491.549 511.123 488.581 513.814 483.226C514.891 481.115 514.352 474.766 512.82 473.565C509.066 470.501 500.219 472.64 496.631 469.259C495.058 467.782 497.362 461.157 496.382 458.742C495.403 456.327 490.641 453.829 489.84 451.524C489.04 449.219 488.571 442.774 490.489 440.966C491.345 440.179 494.202 440.427 495.168 440.966C500.357 443.878 504.719 450.282 506.458 456.037C507.051 457.997 504.36 462.786 505.478 464.539C506.292 465.822 509.825 466.664 511.344 466.43C517.996 465.395 529.41 460.412 530.486 455.223C531.867 448.86 514.504 441.656 516.354 434.52C516.933 432.257 525.739 432.339 528.306 433.996C530.1 435.155 529.948 440.193 531.245 441.725C534.779 445.865 540.299 448.694 545.282 451.275C547.628 452.476 553.866 452.821 555.178 454.974C556.889 457.735 551.879 465.201 552.845 468.113C554.263 471.965 556.315 475.553 558.918 478.727C563.396 452.905 561.001 426.36 551.974 401.756C542.948 377.152 527.607 355.357 507.493 338.557Z" fill="#C53F3F" stroke="#263238" stroke-linecap="round" stroke-linejoin="round"/>
<path d="M333.744 549.792C328.223 544.492 321.695 536.101 321.087 529.421C320.384 521.692 335.469 518.186 336.269 509.546C336.559 506.427 329.051 498.256 329.658 494.985C330.266 491.714 338.629 488.402 338.257 484.869C337.511 477.65 329.851 469.521 323.834 465.643C320.591 463.545 311.205 466.154 308.39 463.435C307.01 462.137 309.204 457.914 307.838 456.713C306.085 455.167 300.689 457.459 298.494 456.575C295.955 455.554 293.277 450.116 290.848 449.316C282.636 446.555 270.642 453.332 262.582 450.116C262.582 451.165 262.582 452.214 262.582 453.263V453.994C263.998 454.695 265.175 455.8 265.963 457.169C266.183 458.352 266.139 459.57 265.834 460.734C265.528 461.898 264.969 462.981 264.197 463.904C263.833 464.133 263.412 464.257 262.982 464.263C263.286 468.527 263.783 472.737 264.445 476.891C268.586 479.5 273.968 481.239 276.66 484.827C278.302 487.022 274.797 492.073 276.66 494.212C280.372 498.422 288.736 498.781 292.849 502.493C302.51 511.202 304.042 528.813 314.863 538.764C316.754 540.503 321.281 542.173 323.144 543.967C325.752 546.507 326.829 551.241 329.631 553.629C334.434 557.769 342.563 564.67 347.021 564.284C347.821 564.215 344.757 557.383 342.19 554.622C340.272 552.662 335.772 551.655 333.744 549.792Z" fill="#C53F3F" stroke="#263238" stroke-linecap="round" stroke-linejoin="round"/>
<path d="M268.103 426.419C269.402 426.859 270.819 426.8 272.078 426.253C273.968 424.776 272.298 419.904 273.872 418.22C280.538 411.071 293.967 411.568 300.219 403.853C301.972 401.686 299.295 396.082 301.599 394.44C309.066 389.292 320.922 400.071 327.464 395.337C331.328 392.577 334.765 382.916 332.984 378.568C332.653 377.754 328.457 379.7 327.616 379.093C325.918 377.864 328.747 370.315 327.202 369.79C322.744 368.272 315.318 372.206 310.64 374.759C309.356 375.477 307.092 378.32 305.837 378.72C303.173 379.562 297.956 377.74 299.35 375.822C302.469 371.557 310.543 370.439 314.987 367.016C318.893 363.994 325.78 357.714 325.697 354.498C325.573 350.109 306.927 355.05 302.234 357.396C299.474 358.777 293.539 364.504 290.724 365.871C278.49 382.764 269.95 402.045 265.66 422.457C266.405 424.072 266.957 425.935 268.103 426.419Z" fill="#C53F3F" stroke="#263238" stroke-linecap="round" stroke-linejoin="round"/>
<path d="M317.872 616.785L336.38 589.347" stroke="#263238" stroke-linecap="round" stroke-linejoin="round"/>
<path d="M228.768 446.859L257.724 447.287" stroke="#263238" stroke-linecap="round" stroke-linejoin="round"/>
<path d="M314.752 290.734L332.612 319.373" stroke="#263238" stroke-linecap="round" stroke-linejoin="round"/>
<path d="M603.083 450.682L566.895 451.124" stroke="#263238" stroke-linecap="round" stroke-linejoin="round"/>
<path d="M219.866 552.952L250.216 594.344L266.667 616.771" stroke="#263238" stroke-linecap="round" stroke-linejoin="round"/>
<path d="M271.995 292.763L201.178 382.598" stroke="#263238" stroke-linecap="round" stroke-linejoin="round"/>
<path d="M512.089 636.08L338.933 643.657" stroke="#263238" stroke-linecap="round" stroke-linejoin="round"/>
<path d="M584.106 597.904L639.216 494.005" stroke="#263238" stroke-linecap="round" stroke-linejoin="round"/>
<path d="M643.508 410.188L641.673 376.512" stroke="#263238" stroke-linecap="round" stroke-linejoin="round"/>
<path d="M521.46 342.601L538.961 329.862" stroke="#263238" stroke-linecap="round" stroke-linejoin="round"/>
<path d="M338.643 254.284L538.243 257.734" stroke="#263238" stroke-linecap="round" stroke-linejoin="round"/>
<path d="M679.243 467.758C688.086 448.879 679.951 426.405 661.072 417.562C642.194 408.718 619.72 416.854 610.877 435.732C602.033 454.611 610.169 477.085 629.047 485.928C647.926 494.771 670.399 486.636 679.243 467.758Z" fill="#C53F3F"/>
<path opacity="0.2" d="M679.243 467.758C688.086 448.879 679.951 426.405 661.072 417.562C642.194 408.718 619.72 416.854 610.877 435.732C602.033 454.611 610.169 477.085 629.047 485.928C647.926 494.771 670.399 486.636 679.243 467.758Z" fill="white"/>
<path d="M645.22 489.727C648.639 489.728 652.042 489.263 655.336 488.347L653.225 476.022L635.448 477.071L634.758 488.25C638.159 489.228 641.681 489.725 645.22 489.727Z" fill="white"/>
<path d="M631.956 476.229C635.186 481.625 639.934 485.034 645.247 485.034C650.561 485.034 655.309 481.625 658.552 476.229H631.956Z" fill="#263238" stroke="#263238" stroke-linecap="round" stroke-linejoin="round"/>
<path d="M645.22 489.727C648.639 489.728 652.042 489.263 655.336 488.347L653.225 476.022L635.448 477.071L634.758 488.25C638.159 489.228 641.681 489.725 645.22 489.727V489.727Z" stroke="#263238" stroke-linecap="round" stroke-linejoin="round"/>
<path d="M666.309 456.216C665.566 455.867 664.721 455.803 663.935 456.037C663.452 442.456 655.019 431.636 644.612 431.636C634.206 431.636 625.828 442.456 625.29 456.037C624.499 455.802 623.649 455.866 622.902 456.216C620.874 457.21 620.335 460.233 621.674 462.952C622.071 463.929 622.74 464.771 623.601 465.381C624.461 465.99 625.479 466.339 626.532 466.388C629.293 476.049 636.318 482.867 644.543 482.867C652.769 482.867 659.725 475.967 662.568 466.388C663.62 466.337 664.634 465.986 665.492 465.377C666.35 464.768 667.017 463.927 667.413 462.952C668.89 460.233 668.338 457.21 666.309 456.216Z" fill="white" stroke="#263238" stroke-linecap="round" stroke-linejoin="round"/>
<path d="M642.032 458.922L641.88 459.653C641.395 461.96 640.492 464.158 639.216 466.14V466.14L643.081 468.251" stroke="#263238" stroke-linecap="round" stroke-linejoin="round"/>
<path d="M638.705 473.372C640.347 474.079 642.115 474.443 643.902 474.443C645.689 474.443 647.457 474.079 649.098 473.372" stroke="#263238" stroke-linecap="round" stroke-linejoin="round"/>
<path d="M634.717 456.989C634.717 458.011 634.33 458.839 633.847 458.839C633.364 458.839 632.964 458.011 632.964 456.989C632.964 455.968 633.35 455.14 633.847 455.14C634.344 455.14 634.717 455.968 634.717 456.989Z" fill="#263238"/>
<path d="M649.429 456.989C649.429 458.011 649.029 458.839 648.546 458.839C648.063 458.839 647.663 458.011 647.663 456.989C647.663 455.968 648.063 455.14 648.546 455.14C649.029 455.14 649.429 455.968 649.429 456.989Z" fill="#263238"/>
<path d="M632.122 453.401C632.786 452.133 633.866 451.132 635.179 450.564C636.493 449.997 637.962 449.897 639.34 450.282" stroke="#263238" stroke-linecap="round" stroke-linejoin="round"/>
<path d="M654.922 453.401C654.258 452.133 653.179 451.132 651.865 450.564C650.551 449.997 649.083 449.897 647.704 450.282" stroke="#263238" stroke-linecap="round" stroke-linejoin="round"/>
<path d="M629.417 453.939H625.511" stroke="#263238" stroke-linecap="round" stroke-linejoin="round"/>
<path d="M641.093 453.939H630.231V460.937H641.093V453.939Z" stroke="#263238" stroke-linecap="round" stroke-linejoin="round"/>
<path d="M656.73 453.939H645.868V460.937H656.73V453.939Z" stroke="#263238" stroke-linecap="round" stroke-linejoin="round"/>
<path d="M641.107 455.996H645.868" stroke="#263238" stroke-linecap="round" stroke-linejoin="round"/>
<path d="M663.259 453.939H656.73" stroke="#263238" stroke-linecap="round" stroke-linejoin="round"/>
<path d="M626.767 455.996C628.147 456.12 632.191 447.052 630.631 441.021C629.072 434.989 644.157 439.572 653.57 438.481C662.982 437.391 656.827 451.8 662.141 455.223C667.454 458.645 666.281 434.258 661.174 433.526C661.174 433.526 657.365 426.281 642.666 426.888C627.968 427.495 626.022 436.797 626.022 436.797C626.022 436.797 618.817 455.223 626.767 455.996Z" fill="#263238" stroke="#263238" stroke-linecap="round" stroke-linejoin="round"/>
<path d="M292.173 293.26C315.338 293.26 334.116 274.481 334.116 251.317C334.116 228.152 315.338 209.373 292.173 209.373C269.008 209.373 250.23 228.152 250.23 251.317C250.23 274.481 269.008 293.26 292.173 293.26Z" fill="#C53F3F"/>
<path opacity="0.3" d="M292.173 293.26C315.338 293.26 334.116 274.481 334.116 251.317C334.116 228.152 315.338 209.373 292.173 209.373C269.008 209.373 250.23 228.152 250.23 251.317C250.23 274.481 269.008 293.26 292.173 293.26Z" fill="white"/>
<path d="M291.717 293.564C295.514 293.565 299.294 293.049 302.952 292.032L300.55 278.382L280.787 279.555L280.027 291.976C283.83 293.053 287.765 293.587 291.717 293.564Z" fill="white"/>
<path d="M276.908 280.162C280.511 286.152 285.783 289.948 291.69 289.948C297.597 289.948 302.869 286.152 306.458 280.162H276.908Z" fill="#263238" stroke="#263238" stroke-linecap="round" stroke-linejoin="round"/>
<path d="M291.717 293.564C295.514 293.565 299.294 293.049 302.952 292.032L300.55 278.382L280.787 279.555L280.027 291.976C283.83 293.053 287.765 293.587 291.717 293.564Z" stroke="#263238" stroke-linecap="round" stroke-linejoin="round"/>
<path d="M311.274 233.651C311.274 233.651 330.335 272.695 318.52 280.742C305.961 289.299 275.859 289.741 266.336 279.362C256.813 268.983 266.419 244.747 270.477 239.654C273.439 236.197 276.95 233.25 280.869 230.932L293.94 228.171L307.272 233.002L311.274 233.651Z" fill="#263238" stroke="#263238" stroke-linecap="round" stroke-linejoin="round"/>
<path d="M315.801 256.299C314.972 255.913 314.031 255.839 313.151 256.092C312.627 241.007 303.242 228.972 291.759 228.972C280.276 228.972 270.891 241.007 270.352 256.092C269.473 255.839 268.532 255.913 267.703 256.299C265.467 257.403 264.846 260.757 266.322 263.78C266.767 264.862 267.511 265.795 268.466 266.469C269.422 267.144 270.55 267.532 271.719 267.589C274.797 278.299 282.595 285.917 291.745 285.917C300.896 285.917 308.68 278.299 311.757 267.589C312.926 267.532 314.054 267.144 315.01 266.469C315.966 265.795 316.709 264.862 317.154 263.78C318.658 260.771 318.051 257.417 315.801 256.299Z" fill="white" stroke="#263238" stroke-linecap="round" stroke-linejoin="round"/>
<path d="M288.819 259.322L285.686 267.34L289.992 269.687" stroke="#263238" stroke-linecap="round" stroke-linejoin="round"/>
<path d="M285.686 275.359C287.509 276.15 289.475 276.558 291.462 276.558C293.449 276.558 295.415 276.15 297.238 275.359" stroke="#263238" stroke-linecap="round" stroke-linejoin="round"/>
<path d="M276.536 251.979C277.635 250.824 279.101 250.086 280.684 249.89C282.267 249.693 283.868 250.051 285.217 250.903" stroke="#263238" stroke-linecap="round" stroke-linejoin="round"/>
<path d="M302.566 252.159C301.507 250.965 300.067 250.176 298.492 249.924C296.917 249.673 295.303 249.974 293.926 250.778" stroke="#263238" stroke-linecap="round" stroke-linejoin="round"/>
<path d="M280.856 261.558C279.255 261.558 277.719 260.923 276.586 259.792C275.453 258.661 274.814 257.127 274.81 255.526V253.773H285.148C285.61 253.777 286.053 253.963 286.378 254.292C286.704 254.62 286.887 255.064 286.887 255.526C286.887 257.126 286.251 258.66 285.12 259.791C283.989 260.922 282.455 261.558 280.856 261.558Z" fill="#263238" stroke="#263238" stroke-linecap="round" stroke-linejoin="round"/>
<path d="M298.204 261.558C296.605 261.558 295.071 260.922 293.939 259.791C292.808 258.66 292.173 257.126 292.173 255.526C292.173 255.064 292.356 254.62 292.681 254.292C293.007 253.963 293.449 253.777 293.912 253.773H304.249V255.526C304.246 257.127 303.607 258.661 302.474 259.792C301.341 260.923 299.805 261.558 298.204 261.558Z" fill="#263238" stroke="#263238" stroke-linecap="round" stroke-linejoin="round"/>
<path d="M286.887 256.064H292.173" stroke="#263238" stroke-linecap="round" stroke-linejoin="round"/>
<path d="M274.81 253.773H270.463" stroke="#263238" stroke-linecap="round" stroke-linejoin="round"/>
<path d="M313 253.773H304.939" stroke="#263238" stroke-linecap="round" stroke-linejoin="round"/>
<path d="M285.203 236.342C285.203 236.342 295.071 248.97 304.249 249.826C313.428 250.682 307.41 269.148 304.249 269.687C304.249 269.687 312.53 269.99 313.151 256.106C313.151 256.106 324.607 237.336 305.202 229.358C290.227 223.203 282.705 228.986 282.705 228.986C282.705 228.986 263.659 233.72 268.613 253.111C268.613 253.111 271.967 263.283 275.583 264.497C275.583 264.497 270.228 252.973 275.459 246.804C280.69 240.634 284.817 240.896 285.203 236.342Z" fill="#263238" stroke="#263238" stroke-linecap="round" stroke-linejoin="round"/>
<path d="M359.097 222.526H365.998C368.773 222.526 371.434 221.424 373.396 219.462C375.358 217.5 376.46 214.839 376.46 212.065C376.46 209.29 375.358 206.629 373.396 204.667C371.434 202.705 368.773 201.603 365.998 201.603H365.418C364.605 199.113 363.025 196.944 360.904 195.405C358.783 193.867 356.231 193.039 353.611 193.039C350.991 193.039 348.439 193.867 346.318 195.405C344.197 196.944 342.617 199.113 341.804 201.603H341.224C339.85 201.603 338.49 201.874 337.221 202.399C335.951 202.925 334.798 203.696 333.827 204.667C332.855 205.639 332.084 206.792 331.559 208.061C331.033 209.33 330.762 210.691 330.762 212.065C330.762 213.439 331.033 214.799 331.559 216.068C332.084 217.337 332.855 218.491 333.827 219.462C334.798 220.434 335.951 221.204 337.221 221.73C338.49 222.256 339.85 222.526 341.224 222.526H344.095" stroke="#263238" stroke-linecap="round" stroke-linejoin="round"/>
<path d="M364.425 219.366L351.617 206.558L338.809 219.366H346.455V229.731H356.779V219.366H364.425Z" fill="#C53F3F" stroke="#263238" stroke-linecap="round" stroke-linejoin="round"/>
<path d="M293.94 696.862C317.104 696.862 335.883 678.084 335.883 654.919C335.883 631.755 317.104 612.976 293.94 612.976C270.775 612.976 251.996 631.755 251.996 654.919C251.996 678.084 270.775 696.862 293.94 696.862Z" fill="#C53F3F"/>
<path opacity="0.2" d="M293.94 696.862C317.104 696.862 335.883 678.084 335.883 654.919C335.883 631.755 317.104 612.976 293.94 612.976C270.775 612.976 251.996 631.755 251.996 654.919C251.996 678.084 270.775 696.862 293.94 696.862Z" fill="white"/>
<path d="M293.939 696.862C297.736 696.863 301.516 696.348 305.174 695.33L302.842 681.625L283.078 682.799L282.318 695.22C286.096 696.31 290.008 696.863 293.939 696.862Z" fill="white"/>
<path d="M279.199 683.475C282.788 689.465 288.074 693.26 293.967 693.26C299.86 693.26 305.16 689.465 308.749 683.475H279.199Z" fill="#263238" stroke="#263238" stroke-linecap="round" stroke-linejoin="round"/>
<path d="M293.939 696.862C297.736 696.863 301.516 696.348 305.174 695.33L302.842 681.625L283.078 682.799L282.318 695.22C286.096 696.31 290.008 696.863 293.939 696.862Z" stroke="#263238" stroke-linecap="round" stroke-linejoin="round"/>
<path d="M317.941 660.426C317.111 660.04 316.17 659.966 315.291 660.219C314.766 645.134 305.381 633.099 293.898 633.099C282.415 633.099 273.016 645.134 272.492 660.219C271.612 659.966 270.671 660.04 269.842 660.426C267.606 661.53 266.985 664.884 268.462 667.907C268.908 668.999 269.659 669.941 270.626 670.619C271.593 671.297 272.734 671.682 273.913 671.73C276.991 682.44 284.789 690.058 293.94 690.058C303.09 690.058 310.874 682.44 313.952 671.73C315.12 671.673 316.249 671.285 317.204 670.61C318.16 669.935 318.904 669.002 319.348 667.92C320.839 664.829 320.232 661.53 317.941 660.426Z" fill="white" stroke="#263238" stroke-linecap="round" stroke-linejoin="round"/>
<path d="M293.484 663.435L296.617 671.454L292.311 673.8" stroke="#263238" stroke-linecap="round" stroke-linejoin="round"/>
<path d="M287.867 679.472C289.69 680.263 291.656 680.671 293.643 680.671C295.63 680.671 297.596 680.263 299.419 679.472" stroke="#263238" stroke-linecap="round" stroke-linejoin="round"/>
<path d="M286.79 661.572C286.79 662.703 286.349 663.628 285.81 663.628C285.272 663.628 284.83 662.703 284.83 661.572C284.83 660.44 285.272 659.515 285.81 659.515C286.349 659.515 286.79 660.44 286.79 661.572Z" fill="#263238"/>
<path d="M303.035 661.572C303.035 662.703 302.593 663.628 302.055 663.628C301.517 663.628 301.075 662.703 301.075 661.572C301.075 660.44 301.517 659.515 302.055 659.515C302.593 659.515 303.035 660.44 303.035 661.572Z" fill="#263238"/>
<path d="M280.676 657.293C281.408 655.879 282.606 654.762 284.068 654.131C285.529 653.499 287.164 653.393 288.695 653.829" stroke="#263238" stroke-linecap="round" stroke-linejoin="round"/>
<path d="M306.016 657.293C305.284 655.879 304.086 654.762 302.624 654.131C301.163 653.499 299.528 653.393 297.997 653.829" stroke="#263238" stroke-linecap="round" stroke-linejoin="round"/>
<path d="M270.449 657.293C270.449 657.293 273.775 664.014 275.542 663.435C277.308 662.855 274.755 650.406 279.061 647.232C283.367 644.057 298.246 648.17 304.401 642.884C304.401 642.884 304.305 650.171 308.417 653.58C312.53 656.989 310.957 663.821 312.917 663.435C314.877 663.048 315.456 658.08 315.843 655.982C317.03 649.688 318.783 631.926 308.224 631.926C308.224 631.926 305.671 628.213 290.282 628.599C274.893 628.986 274.534 624.693 274.534 624.693C274.534 624.693 262.817 640.979 270.449 657.293Z" fill="#263238" stroke="#263238" stroke-linecap="round" stroke-linejoin="round"/>
<path d="M572.375 359.218L646.904 368.479C664.459 370.66 680.235 357.976 681.284 340.876L687.646 236.204C688.681 219.104 674.59 204.722 656.91 204.846L574.431 205.481C557.455 205.619 543.846 219.131 544.067 235.583L545.668 330.331C545.886 337.558 548.709 344.463 553.617 349.771C558.525 355.08 565.187 358.436 572.375 359.218Z" fill="#C53F3F"/>
<path opacity="0.3" d="M572.375 359.218L646.904 368.479C664.459 370.66 680.235 357.976 681.284 340.876L687.646 236.204C688.681 219.104 674.59 204.722 656.91 204.846L574.431 205.481C557.455 205.619 543.846 219.131 544.067 235.583L545.668 330.331C545.886 337.558 548.709 344.463 553.617 349.771C558.525 355.08 565.187 358.436 572.375 359.218Z" fill="white"/>
<path d="M676.011 320.366V325.735H598.929V320.366C598.929 317.726 599.977 315.194 601.843 313.325C603.708 311.457 606.24 310.405 608.88 310.402H666.047C668.689 310.402 671.224 311.452 673.093 313.32C674.961 315.189 676.011 317.724 676.011 320.366Z" stroke="#263238" stroke-miterlimit="10"/>
<path d="M677.916 352.676V325.735H596.997V362.282" stroke="#263238" stroke-miterlimit="10"/>
<path d="M583.416 261.916C583.416 261.916 586.59 253.442 594.568 254.795C602.545 256.147 596.445 262.813 592.608 263.407C592.594 263.407 592.028 261.074 583.416 261.916Z" fill="white" stroke="#263238" stroke-linecap="round" stroke-linejoin="round"/>
<path d="M578.13 266.719C577.081 267.768 574.555 267.851 576.253 265.574C577.648 263.747 579.534 262.354 581.691 261.558C585.472 259.874 586.949 260.177 590.372 259.46C593.795 258.742 594.43 260.108 595.617 260.757C598.446 262.303 599.122 262.565 599.826 264.125C600.53 265.684 601.317 267.699 599.122 267.699C596.928 267.699 596.983 264.387 594.982 264.511C592.98 264.635 592.07 267.699 590.703 267.699H590.193C589.019 267.699 588.964 266.733 589.668 265.201C590.372 263.669 591.159 262.303 591.159 262.303C590.009 262.915 589.089 263.883 588.536 265.063C587.598 267.051 587.432 267.824 585.776 267.824C584.12 267.824 584.175 266.554 585.886 263.683C584.892 264.27 584.068 265.107 583.499 266.112C582.671 267.699 582.229 267.589 581.125 267.589C579.745 267.589 579.745 265.215 582.339 263.655C582.339 263.766 581.773 263.076 578.13 266.719Z" fill="white" stroke="#263238" stroke-linecap="round" stroke-linejoin="round"/>
<path d="M588.122 261.033C588.122 261.033 587.115 261.033 586.494 262.675L588.122 261.033Z" fill="white"/>
<path d="M588.122 261.033C588.122 261.033 587.115 261.033 586.494 262.675" stroke="#263238" stroke-linecap="round" stroke-linejoin="round"/>
<path d="M608.273 371.267L613.793 380.914H618.514L620.584 377.988L615.477 365.567L608.273 371.267Z" fill="white" stroke="#263238" stroke-linecap="round" stroke-linejoin="round"/>
<path d="M621.357 287.739L615.657 289.879C615.657 289.879 575.052 301.638 573.272 311.602C571.491 321.567 609.046 373.613 609.046 373.613C609.046 373.613 613.573 374.276 617.092 368.272C617.092 368.272 603.842 328.371 597.77 320.546C597.77 320.546 642.321 312.707 644.461 307.006C646.6 301.306 640.665 287.187 640.665 287.187L621.357 287.739Z" fill="#263238" stroke="#263238" stroke-linecap="round" stroke-linejoin="round"/>
<path d="M610.785 380.721C610.882 380.547 611.021 380.4 611.19 380.294C611.359 380.188 611.552 380.126 611.751 380.114C613.454 380.007 615.11 379.506 616.588 378.651C618.065 377.796 619.324 376.61 620.266 375.187C620.434 374.947 620.685 374.777 620.97 374.711C621.256 374.645 621.556 374.686 621.812 374.828C623.915 376.065 625.683 377.8 626.96 379.879C627.42 380.61 627.58 381.489 627.408 382.335C627.236 383.181 626.744 383.928 626.035 384.42L608.425 396.262C607.487 396.894 606.381 397.23 605.25 397.228H600.875C600.629 397.229 600.387 397.171 600.169 397.058C599.951 396.946 599.763 396.783 599.621 396.582C599.479 396.382 599.387 396.151 599.353 395.908C599.319 395.665 599.344 395.417 599.426 395.185C599.601 394.652 599.908 394.171 600.318 393.788C600.728 393.404 601.228 393.13 601.772 392.991C604.67 392.287 610.205 381.894 610.785 380.721Z" fill="#263238"/>
<path d="M610.785 380.721C610.882 380.547 611.021 380.4 611.19 380.294C611.359 380.188 611.552 380.126 611.751 380.114C613.454 380.007 615.11 379.506 616.588 378.651C618.065 377.796 619.324 376.61 620.266 375.187C620.434 374.947 620.685 374.777 620.97 374.711C621.256 374.645 621.556 374.686 621.812 374.828C623.915 376.065 625.683 377.8 626.96 379.879C627.42 380.61 627.58 381.489 627.408 382.335C627.236 383.181 626.744 383.928 626.035 384.42L608.425 396.262C607.487 396.894 606.381 397.23 605.25 397.228H600.875C600.629 397.229 600.387 397.171 600.169 397.058C599.951 396.946 599.763 396.783 599.621 396.582C599.479 396.382 599.387 396.151 599.353 395.908C599.319 395.665 599.344 395.417 599.426 395.185C599.601 394.652 599.908 394.171 600.318 393.788C600.728 393.404 601.228 393.13 601.772 392.991C604.67 392.287 610.205 381.894 610.785 380.721Z" fill="#BFBFBF" stroke="#263238" stroke-linecap="round" stroke-linejoin="round"/>
<path d="M610.785 380.721C610.882 380.547 611.021 380.4 611.19 380.294C611.359 380.188 611.552 380.126 611.751 380.114C613.454 380.007 615.11 379.506 616.588 378.651C618.065 377.796 619.324 376.61 620.266 375.187C620.434 374.947 620.685 374.777 620.97 374.711C621.256 374.645 621.556 374.686 621.812 374.828C623.915 376.065 625.683 377.8 626.96 379.879C627.42 380.61 627.58 381.489 627.408 382.335C627.236 383.181 626.744 383.928 626.035 384.42L608.425 396.262C607.487 396.894 606.381 397.23 605.25 397.228H600.875C600.629 397.229 600.387 397.171 600.169 397.058C599.951 396.946 599.763 396.783 599.621 396.582C599.479 396.382 599.387 396.151 599.353 395.908C599.319 395.665 599.344 395.417 599.426 395.185C599.601 394.652 599.908 394.171 600.318 393.788C600.728 393.404 601.228 393.13 601.772 392.991C604.67 392.287 610.205 381.894 610.785 380.721Z" stroke="#263238" stroke-linecap="round" stroke-linejoin="round"/>
<path d="M589.13 315.646C589.13 315.646 591.655 315.826 595.906 319.028" stroke="#7F7F7F" stroke-linecap="round" stroke-linejoin="round"/>
<path d="M605.871 373.613L603.994 387.65L612.344 389.085L616.637 375.283L605.871 373.613Z" fill="white" stroke="#263238" stroke-linecap="round" stroke-linejoin="round"/>
<path d="M634.717 291.493C635.227 293.426 634.344 299.774 632.564 300.671C625.663 304.329 614.263 314.045 611.737 324.438C608.535 337.605 604.974 377.864 604.974 377.864C604.974 377.864 607.831 382.488 615.312 380.349C615.312 380.349 629.196 346.866 630.259 330.483C637.447 325.716 645.089 321.671 653.073 318.407C659.808 315.867 663.479 311.644 664.818 308.028C668.379 298.367 661.257 282.743 661.257 282.743L634.896 288.043L634.717 291.493Z" fill="#263238" stroke="#263238" stroke-linecap="round" stroke-linejoin="round"/>
<path d="M623.786 326.218C625.621 326.422 627.336 327.233 628.658 328.523" stroke="#7F7F7F" stroke-linecap="round" stroke-linejoin="round"/>
<path d="M603.635 384.185C603.484 384.054 603.302 383.965 603.106 383.926C602.91 383.887 602.707 383.901 602.517 383.965C600.13 384.779 591.338 387.608 586.259 387.374C582.56 387.194 581.401 389.292 581.056 390.893C581.01 391.114 581.01 391.342 581.056 391.563C581.101 391.783 581.191 391.993 581.32 392.177C581.45 392.362 581.615 392.519 581.807 392.637C581.999 392.756 582.213 392.834 582.436 392.867L610.992 397.187C611.842 397.321 612.712 397.122 613.419 396.631C614.126 396.14 614.616 395.394 614.787 394.55C615.309 392.158 615.233 389.674 614.566 387.318C614.477 387.038 614.285 386.802 614.03 386.656C613.774 386.51 613.473 386.466 613.186 386.532C611.521 386.905 609.792 386.888 608.135 386.481C606.478 386.074 604.938 385.288 603.635 384.185Z" fill="#263238"/>
<path d="M603.635 384.185C603.484 384.054 603.302 383.965 603.106 383.926C602.91 383.887 602.707 383.901 602.517 383.965C600.13 384.779 591.338 387.608 586.259 387.374C582.56 387.194 581.401 389.292 581.056 390.893C581.01 391.114 581.01 391.342 581.056 391.563C581.101 391.783 581.191 391.993 581.32 392.177C581.45 392.362 581.615 392.519 581.807 392.637C581.999 392.756 582.213 392.834 582.436 392.867L610.992 397.187C611.842 397.321 612.712 397.122 613.419 396.631C614.126 396.14 614.616 395.394 614.787 394.55C615.309 392.158 615.233 389.674 614.566 387.318C614.477 387.038 614.285 386.802 614.03 386.656C613.774 386.51 613.473 386.466 613.186 386.532C611.521 386.905 609.792 386.888 608.135 386.481C606.478 386.074 604.938 385.288 603.635 384.185Z" fill="#BFBFBF" stroke="#263238" stroke-linecap="round" stroke-linejoin="round"/>
<path d="M603.635 384.185C603.484 384.054 603.302 383.965 603.106 383.926C602.91 383.887 602.707 383.901 602.517 383.965C600.13 384.779 591.338 387.608 586.259 387.374C582.56 387.194 581.401 389.292 581.056 390.893C581.01 391.114 581.01 391.342 581.056 391.563C581.101 391.783 581.191 391.993 581.32 392.177C581.45 392.362 581.615 392.519 581.807 392.637C581.999 392.756 582.213 392.834 582.436 392.867L610.992 397.187C611.842 397.321 612.712 397.122 613.419 396.631C614.126 396.14 614.616 395.394 614.787 394.55C615.309 392.158 615.233 389.674 614.566 387.318C614.477 387.038 614.285 386.802 614.03 386.656C613.774 386.51 613.473 386.466 613.186 386.532C611.521 386.905 609.792 386.888 608.135 386.481C606.478 386.074 604.938 385.288 603.635 384.185Z" stroke="#263238" stroke-linecap="round" stroke-linejoin="round"/>
<path d="M617.106 314.57C621.963 307.489 629.294 302.482 637.656 300.533" stroke="#7F7F7F" stroke-linecap="round" stroke-linejoin="round"/>
<path d="M665.177 288.457C643.439 294.516 615.657 289.837 615.657 289.837C616.129 285.803 616.023 281.723 615.339 277.719H640.9C641.812 277.723 642.716 277.545 643.56 277.197C644.403 276.849 645.169 276.337 645.813 275.69C647.09 274.396 647.804 272.65 647.801 270.832H614.056C613.145 266.692 611.903 261.972 610.315 256.755C608.92 251.853 607.995 246.829 607.555 241.752L598.86 257.458C598.86 257.458 597.756 261.282 592.194 261.392C586.632 261.502 587.267 259.487 592.083 243.795C595.111 234.714 599.868 226.306 606.092 219.035C606.35 218.731 606.698 218.518 607.086 218.427C607.086 218.303 607.086 218.234 607.086 218.234C642.722 209.028 658.055 220.415 658.055 220.415C648.077 249.398 665.177 288.457 665.177 288.457Z" fill="#C53F3F" stroke="#263238" stroke-linecap="round" stroke-linejoin="round"/>
<path d="M615.394 263.918C615.394 263.918 610.674 266.775 612.041 267.437C614.332 268.555 619.314 265.036 619.314 265.036C619.314 265.036 624.738 264.677 621.978 263.435L619.217 262.192L615.394 263.918Z" fill="white"/>
<path opacity="0.2" d="M615.394 263.918C615.394 263.918 610.674 266.775 612.041 267.437C614.332 268.555 619.314 265.036 619.314 265.036C619.314 265.036 624.738 264.677 621.978 263.435L619.217 262.192L615.394 263.918Z" fill="black"/>
<path d="M615.394 263.918C615.394 263.918 610.674 266.775 612.041 267.437C614.332 268.555 619.314 265.036 619.314 265.036C619.314 265.036 624.738 264.677 621.978 263.435L619.217 262.192L615.394 263.918Z" stroke="#263238" stroke-linecap="round" stroke-linejoin="round"/>
<path d="M621.578 221.132C621.578 221.132 624.338 233.692 627.788 233.692C631.239 233.692 638.429 214.797 638.429 214.797L633.654 211.526L621.578 221.132Z" fill="white"/>
<path d="M613.89 210.409C614.209 211.978 614.718 213.503 615.408 214.949C617.768 219.449 621.108 226.75 625.539 225.604C629.458 224.597 635.269 218.703 635.904 215.17C636.254 213.172 636.466 211.152 636.539 209.125L613.89 210.409Z" fill="#263238" stroke="#263238" stroke-linecap="round" stroke-linejoin="round"/>
<path d="M621.578 221.132C621.578 221.132 624.338 233.692 627.788 233.692C631.239 233.692 638.429 214.797 638.429 214.797L633.654 211.526L621.578 221.132Z" stroke="#263238" stroke-linecap="round" stroke-linejoin="round"/>
<path d="M615.036 184.268C615.036 184.268 605.153 187.028 606.906 202.431C608.728 218.496 611.047 212.258 610.025 215.557C609.004 218.855 624.628 219.131 624.628 219.131C624.628 219.131 638.278 217.447 642.418 220.429C646.559 223.41 648.96 216.288 647.359 211.526C645.758 206.765 640.017 197.877 638.374 190.686C636.014 180.39 621.177 180.666 615.036 184.268Z" fill="#263238" stroke="#263238" stroke-linecap="round" stroke-linejoin="round"/>
<path d="M612.041 197.269C612.041 197.269 612.041 208.67 614.332 213.307C616.623 217.944 619.645 225.411 624.338 224.555C628.478 223.769 635.034 218.262 635.917 214.742C636.446 212.645 636.801 210.508 636.98 208.352C637.491 208.131 639.092 209.36 639.823 205.329C640.099 203.867 641.493 199.547 638.319 198.912C634.882 198.249 634.91 203.19 634.91 203.19L629.858 190.327L618.182 188.367L614.276 190.148L612.041 197.269Z" fill="white" stroke="#263238" stroke-linecap="round" stroke-linejoin="round"/>
<path d="M619.411 208.366C619.231 209.839 618.908 211.29 618.445 212.7C618.38 212.934 618.408 213.184 618.524 213.398C618.64 213.611 618.834 213.772 619.066 213.845L621.453 214.549" stroke="#263238" stroke-linecap="round" stroke-linejoin="round"/>
<path d="M623.317 216.951C623.317 216.951 627.733 216.826 629.527 214.356" stroke="#263238" stroke-linecap="round" stroke-linejoin="round"/>
<path d="M614.138 204.819C614.241 204.594 614.387 204.391 614.569 204.222C614.75 204.054 614.963 203.922 615.195 203.837C615.427 203.751 615.674 203.711 615.921 203.721C616.169 203.731 616.412 203.79 616.637 203.894" stroke="#263238" stroke-linecap="round" stroke-linejoin="round"/>
<path d="M621.854 203.094C621.854 203.094 624.048 201.52 626.988 203.715" stroke="#263238" stroke-linecap="round" stroke-linejoin="round"/>
<path d="M616.54 208.297C616.623 208.904 616.457 209.456 616.14 209.498C615.822 209.539 615.505 209.07 615.408 208.449C615.312 207.828 615.505 207.289 615.808 207.248C616.112 207.207 616.443 207.676 616.54 208.297Z" fill="#263238"/>
<path d="M624.462 207.828C624.559 208.449 624.379 208.987 624.076 209.028C623.772 209.07 623.427 208.6 623.344 207.993C623.261 207.386 623.427 206.82 623.744 206.779C624.062 206.737 624.338 207.207 624.462 207.828Z" fill="#263238"/>
<path d="M611.295 190.327C611.295 190.327 607.472 200.388 613.076 200.126C618.679 199.864 623.441 196.262 629.017 199.229C634.592 202.197 628.133 193.708 628.133 193.708C628.133 193.708 633.833 199.767 633.654 203.949C633.475 208.131 635.697 201.368 635.338 199.146C634.979 196.924 631.239 185.911 631.239 185.911L625.194 184.53L614.842 185.593L611.295 190.327Z" fill="#263238" stroke="#263238" stroke-linecap="round" stroke-linejoin="round"/>
<path d="M636.345 213.086C635.973 214.701 630.135 220.47 633.999 221.671C637.864 222.871 646.283 221.671 647.552 217.378C648.822 213.086 644.792 210.823 644.792 210.823C644.792 210.823 636.828 210.933 636.345 213.086Z" fill="#263238" stroke="#263238" stroke-linecap="round" stroke-linejoin="round"/>
<path d="M637.215 260.039L624.393 260.674C624.393 260.674 613.614 258.038 609.956 258.259C607.111 258.596 604.344 259.412 601.772 260.674C600.611 261.537 599.717 262.709 599.191 264.056C599.085 264.718 599.085 265.394 599.191 266.057C599.19 266.407 599.322 266.744 599.561 267C599.799 267.256 600.126 267.413 600.475 267.437C602.931 267.616 607.003 267.837 607.969 266.623C607.969 266.623 607.169 267.575 608.618 267.575C610.067 267.575 612.041 265.284 612.041 265.284L616.374 265.105C616.374 265.105 618.238 267.423 623.855 267.575C624.767 267.443 625.66 267.206 626.519 266.871L636.939 268.251L638.319 266.471V260.44L637.215 260.039Z" fill="white" stroke="#263238" stroke-linecap="round" stroke-linejoin="round"/>
<path d="M601.151 266.457C601.151 266.457 602.352 262.151 603.732 261.295C604.947 260.691 606.196 260.157 607.472 259.694" stroke="#263238" stroke-linecap="round" stroke-linejoin="round"/>
<path d="M604.132 266.457C604.275 265.442 604.573 264.455 605.015 263.531C606.149 262.264 607.569 261.284 609.156 260.674C610.124 260.581 611.1 260.581 612.068 260.674" stroke="#263238" stroke-linecap="round" stroke-linejoin="round"/>
<path d="M608.259 265.657C608.259 265.657 608.645 263.821 609.128 263.435C610.025 262.903 611.012 262.542 612.041 262.372C612.803 262.315 613.569 262.315 614.332 262.372" stroke="#263238" stroke-linecap="round" stroke-linejoin="round"/>
<path d="M634.965 268.417C634.965 268.417 659.656 271.633 664.998 271.895C670.339 272.157 669 245.975 668.462 234.755C667.924 223.534 656.965 219.738 656.965 219.738C649.208 235.859 658.042 256.934 658.042 256.934L636.138 259.611C636.138 259.611 637.808 265.215 634.965 268.417Z" fill="#C53F3F" stroke="#263238" stroke-linecap="round" stroke-linejoin="round"/>
<path d="M647.607 230.214C647.907 235.721 649.952 240.99 653.446 245.258" stroke="#263238" stroke-linecap="round" stroke-linejoin="round"/>
<path d="M609.722 227.564C608.684 232.676 608.125 237.875 608.052 243.091" stroke="#263238" stroke-linecap="round" stroke-linejoin="round"/>
<path d="M593.491 235.031H587.97L595.575 270.832H601.096C601.462 270.846 601.826 270.773 602.159 270.62C602.491 270.466 602.782 270.235 603.009 269.947C603.235 269.659 603.39 269.321 603.46 268.962C603.531 268.602 603.515 268.231 603.414 267.879L597.052 237.97C596.858 237.16 596.406 236.435 595.763 235.905C595.121 235.375 594.323 235.068 593.491 235.031Z" fill="#263238"/>
<path opacity="0.2" d="M593.491 235.031H587.97L595.575 270.832H601.096C601.462 270.846 601.826 270.773 602.159 270.62C602.491 270.466 602.782 270.235 603.009 269.947C603.235 269.659 603.39 269.321 603.46 268.962C603.531 268.602 603.515 268.231 603.414 267.879L597.052 237.97C596.858 237.16 596.406 236.435 595.763 235.905C595.121 235.375 594.323 235.068 593.491 235.031Z" fill="white"/>
<path d="M593.491 235.031H587.97L595.575 270.832H601.096C601.462 270.846 601.826 270.773 602.159 270.62C602.491 270.466 602.782 270.235 603.009 269.947C603.235 269.659 603.39 269.321 603.46 268.962C603.531 268.602 603.515 268.231 603.414 267.879L597.052 237.97C596.858 237.16 596.406 236.435 595.763 235.905C595.121 235.375 594.323 235.068 593.491 235.031Z" stroke="#263238" stroke-linecap="round" stroke-linejoin="round"/>
<path d="M603.428 267.879H632.412V269.259C632.412 269.473 632.37 269.685 632.288 269.882C632.206 270.08 632.086 270.259 631.935 270.41C631.784 270.562 631.604 270.682 631.406 270.763C631.209 270.845 630.997 270.887 630.783 270.887H605.016C604.802 270.887 604.59 270.845 604.392 270.763C604.195 270.682 604.015 270.562 603.864 270.41C603.713 270.259 603.593 270.08 603.511 269.882C603.429 269.685 603.387 269.473 603.387 269.259V267.879H603.428Z" fill="#263238"/>
<path opacity="0.2" d="M603.428 267.879H632.412V269.259C632.412 269.473 632.37 269.685 632.288 269.882C632.206 270.08 632.086 270.259 631.935 270.41C631.784 270.562 631.604 270.682 631.406 270.763C631.209 270.845 630.997 270.887 630.783 270.887H605.016C604.802 270.887 604.59 270.845 604.392 270.763C604.195 270.682 604.015 270.562 603.864 270.41C603.713 270.259 603.593 270.08 603.511 269.882C603.429 269.685 603.387 269.473 603.387 269.259V267.879H603.428Z" fill="white"/>
<path d="M603.428 267.879H632.412V269.259C632.412 269.473 632.37 269.685 632.288 269.882C632.206 270.08 632.086 270.259 631.935 270.41C631.784 270.562 631.604 270.682 631.406 270.763C631.209 270.845 630.997 270.887 630.783 270.887H605.016C604.802 270.887 604.59 270.845 604.392 270.763C604.195 270.682 604.015 270.562 603.864 270.41C603.713 270.259 603.593 270.08 603.511 269.882C603.429 269.685 603.387 269.473 603.387 269.259V267.879H603.428Z" stroke="#263238" stroke-linecap="round" stroke-linejoin="round"/>
<path d="M598.97 270.832H554.087C553.251 270.795 552.451 270.487 551.806 269.954C551.161 269.421 550.707 268.693 550.513 267.879L544.164 237.97C544.063 237.619 544.047 237.248 544.117 236.889C544.188 236.53 544.343 236.193 544.569 235.906C544.796 235.619 545.088 235.389 545.42 235.237C545.753 235.085 546.117 235.014 546.483 235.031H591.366C592.198 235.066 592.997 235.372 593.64 235.902C594.283 236.433 594.735 237.159 594.926 237.97L601.289 267.879C601.39 268.231 601.405 268.602 601.335 268.962C601.264 269.321 601.109 269.659 600.883 269.947C600.657 270.235 600.366 270.466 600.033 270.62C599.701 270.773 599.336 270.846 598.97 270.832Z" fill="#263238"/>
<path d="M598.97 270.832H554.087C553.251 270.795 552.451 270.487 551.806 269.954C551.161 269.421 550.707 268.693 550.513 267.879L544.164 237.97C544.063 237.619 544.047 237.248 544.117 236.889C544.188 236.53 544.343 236.193 544.569 235.906C544.796 235.619 545.088 235.389 545.42 235.237C545.753 235.085 546.117 235.014 546.483 235.031H591.366C592.198 235.066 592.997 235.372 593.64 235.902C594.283 236.433 594.735 237.159 594.926 237.97L601.289 267.879C601.39 268.231 601.405 268.602 601.335 268.962C601.264 269.321 601.109 269.659 600.883 269.947C600.657 270.235 600.366 270.466 600.033 270.62C599.701 270.773 599.336 270.846 598.97 270.832Z" fill="#BFBFBF" stroke="#263238" stroke-linecap="round" stroke-linejoin="round"/>
<path d="M598.97 270.832H554.087C553.251 270.795 552.451 270.487 551.806 269.954C551.161 269.421 550.707 268.693 550.513 267.879L544.164 237.97C544.063 237.619 544.047 237.248 544.117 236.889C544.188 236.53 544.343 236.193 544.569 235.906C544.796 235.619 545.088 235.389 545.42 235.237C545.753 235.085 546.117 235.014 546.483 235.031H591.366C592.198 235.066 592.997 235.372 593.64 235.902C594.283 236.433 594.735 237.159 594.926 237.97L601.289 267.879C601.39 268.231 601.405 268.602 601.335 268.962C601.264 269.321 601.109 269.659 600.883 269.947C600.657 270.235 600.366 270.466 600.033 270.62C599.701 270.773 599.336 270.846 598.97 270.832Z" stroke="#263238" stroke-linecap="round" stroke-linejoin="round"/>
<path d="M513.8 223.382C511.693 223.295 509.701 222.397 508.241 220.876C506.781 219.354 505.965 217.327 505.965 215.218C505.965 213.11 506.781 211.082 508.241 209.561C509.701 208.039 511.693 207.141 513.8 207.055H574.762C576.869 207.141 578.861 208.039 580.321 209.561C581.782 211.082 582.597 213.11 582.597 215.218C582.597 217.327 581.782 219.354 580.321 220.876C578.861 222.397 576.869 223.295 574.762 223.382H513.8Z" fill="white"/>
<path d="M513.8 223.382C511.693 223.295 509.701 222.397 508.241 220.876C506.781 219.354 505.965 217.327 505.965 215.218C505.965 213.11 506.781 211.082 508.241 209.561C509.701 208.039 511.693 207.141 513.8 207.055H574.762C576.869 207.141 578.861 208.039 580.321 209.561C581.782 211.082 582.597 213.11 582.597 215.218C582.597 217.327 581.782 219.354 580.321 220.876C578.861 222.397 576.869 223.295 574.762 223.382H513.8Z" stroke="#263238" stroke-miterlimit="10"/>
<path d="M550.264 209.843H513.8C512.422 209.913 511.123 210.509 510.171 211.51C509.22 212.51 508.69 213.838 508.69 215.218C508.69 216.599 509.22 217.926 510.171 218.927C511.123 219.927 512.422 220.524 513.8 220.594H547.78L550.264 209.843Z" fill="#C53F3F"/>
<path d="M549.271 343.705V270.818H647.801C647.802 271.732 647.623 272.637 647.272 273.48C646.921 274.323 646.407 275.089 645.758 275.732C645.114 276.378 644.348 276.89 643.505 277.238C642.661 277.587 641.757 277.764 640.845 277.761H559.47V354.539" stroke="#263238" stroke-linecap="round" stroke-linejoin="round"/>
<path d="M570.636 597.118H525.808C524.804 597.115 523.839 596.724 523.117 596.027C522.394 595.33 521.969 594.381 521.929 593.377L518.852 510.678C518.831 510.135 518.925 509.593 519.127 509.089C519.33 508.585 519.637 508.129 520.027 507.751C520.418 507.373 520.884 507.082 521.395 506.897C521.906 506.712 522.45 506.636 522.992 506.675L575.439 510.374C576.448 510.438 577.392 510.894 578.07 511.644C578.748 512.394 579.106 513.38 579.068 514.39L574.514 593.405C574.468 594.403 574.039 595.346 573.317 596.037C572.595 596.728 571.635 597.115 570.636 597.118Z" fill="#C53F3F" stroke="#263238" stroke-linecap="round" stroke-linejoin="round"/>
<path d="M538.836 547.763C539.158 546.644 539.38 545.498 539.499 544.34C539.499 543.595 539.085 541.939 538.45 541.58C537.815 541.221 534.544 541.814 534.544 541.814C534.544 541.814 535.317 539.261 534.793 538.681C534.268 538.102 532.598 538.336 531.949 538.681C530.887 539.164 529.603 541.29 528.885 542.215C528.016 543.346 526.498 545.762 525.683 546.921C525.297 547.501 524.082 549.212 524.082 549.212L514.104 552.773L514.642 562.876L525.89 556.085C525.89 556.085 535.979 556.085 538.105 553.808C539.14 552.621 538.602 549.24 538.836 547.763Z" fill="white" stroke="#263238" stroke-linecap="round" stroke-linejoin="round"/>
<path d="M522.606 527.309C522.04 535.314 520.839 543.719 518.396 548.55H522.537C522.537 548.55 518.783 555.271 521.156 561.62C521.156 561.62 509.756 569.28 507.217 564.38C504.677 559.481 507.617 539.675 510.226 530.152C512.834 520.629 513.635 505.999 522.937 506.689" fill="#C53F3F"/>
<path d="M522.606 527.309C522.04 535.314 520.839 543.719 518.396 548.55H522.537C522.537 548.55 518.783 555.271 521.156 561.62C521.156 561.62 509.756 569.28 507.217 564.38C504.677 559.481 507.617 539.675 510.226 530.152C512.834 520.629 513.635 505.999 522.937 506.689" stroke="#263238" stroke-linecap="round" stroke-linejoin="round"/>
<path d="M516.685 549.212C514.791 549.951 513.171 551.258 512.047 552.952" stroke="#263238" stroke-linecap="round" stroke-linejoin="round"/>
<path d="M538.947 523.21L540.824 522.961C541.13 522.919 541.442 522.937 541.742 523.015C542.041 523.093 542.322 523.23 542.568 523.417C542.814 523.605 543.021 523.839 543.177 524.106C543.332 524.374 543.433 524.67 543.474 524.976L545.585 540.476C545.628 540.783 545.61 541.096 545.532 541.396C545.454 541.696 545.317 541.978 545.13 542.225C544.943 542.473 544.709 542.681 544.441 542.838C544.174 542.994 543.878 543.097 543.57 543.139L541.693 543.388L538.947 523.21Z" fill="white" stroke="#263238" stroke-linecap="round" stroke-linejoin="round"/>
<path d="M535.753 544.208L541.948 543.364C543.421 543.164 544.452 541.807 544.252 540.334L542.228 525.483C542.027 524.01 540.67 522.979 539.198 523.18L533.003 524.024C531.53 524.224 530.499 525.581 530.699 527.054L532.723 541.905C532.924 543.378 534.281 544.409 535.753 544.208Z" fill="#BFBFBF"/>
<path d="M535.753 544.208L541.948 543.364C543.421 543.164 544.452 541.807 544.252 540.334L542.228 525.483C542.027 524.01 540.67 522.979 539.198 523.18L533.003 524.024C531.53 524.224 530.499 525.581 530.699 527.054L532.723 541.905C532.924 543.378 534.281 544.409 535.753 544.208Z" stroke="#263238" stroke-linecap="round" stroke-linejoin="round"/>
<path d="M532.129 526.564C532.144 526.675 532.181 526.782 532.238 526.879C532.295 526.977 532.371 527.061 532.46 527.129C532.55 527.197 532.652 527.247 532.761 527.275C532.87 527.304 532.983 527.31 533.095 527.295C533.206 527.28 533.314 527.242 533.411 527.186C533.508 527.129 533.593 527.053 533.661 526.963C533.729 526.874 533.778 526.772 533.807 526.663C533.835 526.554 533.842 526.44 533.826 526.329C533.792 526.105 533.672 525.904 533.492 525.767C533.311 525.631 533.085 525.57 532.86 525.597C532.749 525.613 532.641 525.65 532.544 525.707C532.447 525.763 532.362 525.839 532.294 525.929C532.226 526.018 532.177 526.121 532.148 526.23C532.12 526.339 532.113 526.452 532.129 526.564Z" fill="white" stroke="#263238" stroke-linecap="round" stroke-linejoin="round"/>
<path d="M533.702 541.842C533.509 540.693 533.416 539.529 533.426 538.364C533.564 537.619 534.102 536.018 534.806 535.686C535.51 535.355 538.671 536.363 538.671 536.363C538.671 536.363 538.174 533.727 538.767 533.216C539.361 532.705 540.99 533.119 541.528 533.478C542.535 534.072 543.57 536.335 544.178 537.329C544.909 538.557 546.151 541.11 546.828 542.366C547.159 542.988 548.208 544.809 548.208 544.809L557.124 548.895L552.983 556.389L545.668 551.448C545.668 551.448 535.634 550.302 533.771 547.818C532.86 546.617 533.771 543.374 533.702 541.842Z" fill="white" stroke="#263238" stroke-linecap="round" stroke-linejoin="round"/>
<path d="M574.652 514.625C574.873 513.631 575.107 512.651 575.369 511.685C575.423 511.435 575.545 511.204 575.722 511.02C575.899 510.835 576.124 510.703 576.372 510.638C576.619 510.574 576.88 510.579 577.125 510.655C577.37 510.73 577.588 510.872 577.757 511.064L578.102 511.437C579.93 513.384 581.244 515.756 581.925 518.338C584.354 527.543 589.613 550.675 585.886 567.651C585.673 568.604 585.129 569.451 584.351 570.042C583.573 570.634 582.611 570.93 581.635 570.881C574.804 570.467 562.851 568.755 549.781 555.809C549.781 555.809 552.541 549.336 555.785 547.114L573.865 554.415C573.008 547.946 572.602 541.425 572.651 534.9" fill="#C53F3F"/>
<path d="M574.652 514.625C574.873 513.631 575.107 512.651 575.369 511.685C575.423 511.435 575.545 511.204 575.722 511.02C575.899 510.835 576.124 510.703 576.372 510.638C576.619 510.574 576.88 510.579 577.125 510.655C577.37 510.73 577.588 510.872 577.757 511.064L578.102 511.437C579.93 513.384 581.244 515.756 581.925 518.338C584.354 527.543 589.613 550.675 585.886 567.651C585.673 568.604 585.129 569.451 584.351 570.042C583.573 570.634 582.611 570.93 581.635 570.881C574.804 570.467 562.851 568.755 549.781 555.809C549.781 555.809 552.541 549.336 555.785 547.114L573.865 554.415C573.008 547.946 572.602 541.425 572.651 534.9" stroke="#263238" stroke-linecap="round" stroke-linejoin="round"/>
<path d="M575.425 555.588C576.172 555.992 576.832 556.54 577.365 557.201C577.898 557.862 578.294 558.623 578.53 559.439" stroke="#263238" stroke-linecap="round" stroke-linejoin="round"/>
<path d="M551.092 496.186L562.838 477.347C562.838 477.347 568.924 474.821 565.667 471.578C565.667 471.578 570.898 462.524 564.107 462.524C564.107 462.524 563.238 455.167 556.668 458.135C556.668 458.135 550.954 451.344 547.131 456.299C547.131 456.299 539.292 452.476 537.277 457.279C537.277 457.279 531.549 457.279 531.756 461.53C531.756 461.53 528.154 466.333 532.902 466.899C532.902 466.899 531.646 470.722 537.263 470.722C542.88 470.722 549.809 477.623 549.809 477.623L551.189 484.689L551.092 496.186Z" fill="#263238" stroke="#263238" stroke-linecap="round" stroke-linejoin="round"/>
<path d="M558.738 509.436C558.738 509.436 545.972 516.447 536.656 507.462C536.656 507.462 539.002 503.045 539.816 492.073L553.356 489.658C552.965 493.39 553.105 497.158 553.77 500.851C554.667 505.033 557.11 508.87 558.738 509.436Z" fill="white"/>
<path d="M554.322 489.989L553.935 491.369C553.708 492.194 553.324 492.967 552.804 493.647C550.733 496.407 544.923 503.308 539.25 502.687C533.992 502.162 532.529 494.047 532.143 489.975L554.322 489.989Z" fill="#263238" stroke="#263238" stroke-linecap="round" stroke-linejoin="round"/>
<path d="M558.738 509.436C558.738 509.436 545.972 516.447 536.656 507.462C536.656 507.462 539.002 503.045 539.816 492.073L553.356 489.658C552.965 493.39 553.105 497.158 553.77 500.851C554.667 505.033 557.11 508.87 558.738 509.436Z" stroke="#263238" stroke-linecap="round" stroke-linejoin="round"/>
<path d="M534.006 468.734L531.867 475.553C531.63 476.273 531.564 477.038 531.673 477.788L531.977 479.803L530.859 484.289C530.804 484.521 530.763 484.756 530.735 484.993C530.5 487.353 529.589 499.94 536.255 501.555C542.149 502.935 549.326 496.586 551.92 494.005C552.566 493.365 553.081 492.606 553.439 491.769L554.929 488.374C555.781 488.501 556.65 488.358 557.417 487.968C558.184 487.577 558.81 486.957 559.208 486.194C560.588 483.433 562.382 481.874 559.718 479.969C557.055 478.064 555.371 481.929 555.371 481.929C555.371 481.929 555.454 477.071 554.819 475.608C554.184 474.145 551.989 472.447 551.424 471.177C551.146 470.194 550.961 469.187 550.871 468.169C550.871 468.169 541.762 468.417 535.289 465.947L534.006 468.734Z" fill="white" stroke="#263238" stroke-linecap="round" stroke-linejoin="round"/>
<path d="M534.006 468.734L531.867 475.553C531.63 476.273 531.564 477.038 531.673 477.788L531.977 479.803L530.859 484.289C530.804 484.521 530.763 484.756 530.735 484.993C530.5 487.353 529.589 499.94 536.255 501.555C542.149 502.935 549.326 496.586 551.92 494.005C552.566 493.365 553.081 492.606 553.439 491.769L554.929 488.374C555.781 488.501 556.65 488.358 557.417 487.968C558.184 487.577 558.81 486.957 559.208 486.194C560.588 483.433 562.382 481.874 559.718 479.969C557.055 478.064 555.371 481.929 555.371 481.929C555.371 481.929 555.454 477.071 554.819 475.608C554.184 474.145 551.989 472.447 551.424 471.177C551.146 470.194 550.961 469.187 550.871 468.169C550.871 468.169 541.762 468.417 535.289 465.947L534.006 468.734Z" fill="white" stroke="#263238" stroke-linecap="round" stroke-linejoin="round"/>
<path d="M538.243 482.205L534.903 487.574C534.809 487.753 534.755 487.951 534.746 488.153C534.737 488.356 534.773 488.558 534.851 488.745C534.928 488.932 535.046 489.099 535.196 489.236C535.346 489.372 535.524 489.474 535.717 489.534L538.657 490.224" stroke="#263238" stroke-linecap="round" stroke-linejoin="round"/>
<path d="M543.101 493.301C541.059 494.93 538.464 495.165 537.208 494.019" stroke="#263238" stroke-linecap="round" stroke-linejoin="round"/>
<path d="M542.742 484.027C542.618 484.827 542.204 485.407 541.818 485.407C541.431 485.407 541.238 484.648 541.376 483.861C541.514 483.074 541.914 482.481 542.301 482.481C542.687 482.481 542.908 483.268 542.742 484.027Z" fill="#263238"/>
<path d="M535.303 482.826C535.165 483.627 534.751 484.206 534.378 484.206C534.006 484.206 533.799 483.447 533.923 482.66C534.047 481.874 534.475 481.28 534.848 481.28C535.22 481.28 535.427 482.039 535.303 482.826Z" fill="#263238"/>
<path d="M532.184 478.009C532.286 477.671 532.462 477.361 532.7 477.1C532.938 476.839 533.231 476.635 533.558 476.503C533.885 476.37 534.238 476.313 534.59 476.335C534.942 476.357 535.285 476.457 535.593 476.629" stroke="#263238" stroke-linecap="round" stroke-linejoin="round"/>
<path d="M541.141 477.126C541.998 477.137 542.832 477.407 543.534 477.899C544.236 478.392 544.773 479.084 545.075 479.886" stroke="#263238" stroke-linecap="round" stroke-linejoin="round"/>
<path d="M553.59 468.058C553.59 468.058 546.124 473.496 545.24 469.563C545.24 469.563 539.03 471.053 538.616 468.969C538.616 468.969 532.405 471.453 531.715 469.521C531.025 467.589 536.67 462.455 536.67 462.455L549.795 464.125L553.59 468.058Z" fill="#263238" stroke="#263238" stroke-linecap="round" stroke-linejoin="round"/>
<path d="M538.34 461.364C537.503 463.025 536.454 464.569 535.22 465.96" stroke="#7F7F7F" stroke-linecap="round" stroke-linejoin="round"/>
<path d="M542.273 459.584C541.181 459.431 540.073 459.708 539.181 460.357" stroke="#7F7F7F" stroke-linecap="round" stroke-linejoin="round"/>
<path d="M557.469 464.152C553.839 463.807 553.328 466.913 547.711 466.733C542.411 466.512 544.868 462.413 544.026 460.522" stroke="#7F7F7F" stroke-linecap="round" stroke-linejoin="round"/>
<path d="M560.077 476.312C560.077 476.312 566.329 467.244 560.077 464.829" stroke="#7F7F7F" stroke-linecap="round" stroke-linejoin="round"/>
<path d="M514.918 762.034C513.627 762.45 512.443 763.144 511.448 764.067C510.454 764.989 509.674 766.119 509.163 767.375C509.063 767.595 509.022 767.837 509.045 768.078C509.068 768.318 509.154 768.548 509.293 768.745C509.433 768.942 509.622 769.099 509.841 769.2C510.061 769.301 510.302 769.343 510.543 769.321H530.845C531.236 769.325 531.615 769.188 531.912 768.934C532.208 768.68 532.403 768.327 532.46 767.941C532.792 765.394 532.45 762.805 531.466 760.433L532.584 747.929H520.729L519.818 759.895L514.918 762.034Z" fill="white" stroke="#263238" stroke-linecap="round" stroke-linejoin="round"/>
<path d="M527.85 761.91C529.976 764.877 529.451 760.433 531.411 760.433C532.394 762.805 532.737 765.395 532.405 767.941C532.348 768.327 532.153 768.68 531.856 768.934C531.559 769.188 531.181 769.325 530.79 769.321H510.488C510.247 769.343 510.005 769.301 509.786 769.2C509.567 769.099 509.378 768.942 509.238 768.745C509.098 768.548 509.013 768.318 508.99 768.078C508.967 767.837 509.008 767.595 509.108 767.375C509.619 766.119 510.399 764.989 511.393 764.067C512.387 763.144 513.572 762.45 514.863 762.034L519.707 759.895C519.707 759.895 525.739 758.942 527.85 761.91Z" fill="#BFBFBF" stroke="#263238" stroke-linecap="round" stroke-linejoin="round"/>
<path d="M532.46 767.513C532.46 767.665 532.46 767.817 532.46 767.941C532.403 768.327 532.208 768.68 531.912 768.934C531.615 769.188 531.236 769.325 530.845 769.321H510.488C510.267 769.331 510.048 769.287 509.848 769.195C509.647 769.102 509.472 768.962 509.337 768.788C509.202 768.614 509.111 768.409 509.071 768.192C509.031 767.975 509.043 767.752 509.108 767.541C510.488 767.541 511.454 767.541 511.454 767.541L532.46 767.513Z" fill="white" stroke="#263238" stroke-linecap="round" stroke-linejoin="round"/>
<path d="M523.268 595.365L519.128 755.464H533.757C533.757 755.464 538.284 715.439 538.809 701.969C539.043 695.951 540.272 685.407 540.686 679.334C541.417 668.445 543.115 656.313 547.297 635.169C547.973 631.76 552.072 625.867 552.942 622.485C554.639 615.902 555.357 595.323 555.357 595.323L523.268 595.365Z" fill="#263238" stroke="#263238" stroke-linecap="round" stroke-linejoin="round"/>
<path d="M533.412 690.362C533.412 690.362 530.072 694.778 525.435 694.185" stroke="#7F7F7F" stroke-linecap="round" stroke-linejoin="round"/>
<path d="M521.529 686.152C521.529 686.152 526.815 689.299 534.682 686.152" stroke="#7F7F7F" stroke-linecap="round" stroke-linejoin="round"/>
<path d="M586.245 762.034C588.136 762.862 591.048 764.09 592.152 767.803C592.199 767.982 592.203 768.17 592.166 768.351C592.129 768.532 592.051 768.703 591.937 768.849C591.824 768.996 591.679 769.114 591.513 769.196C591.347 769.278 591.164 769.321 590.979 769.321H570.677C570.194 769.321 569.728 769.144 569.367 768.824C569.006 768.503 568.774 768.062 568.717 767.582C568.473 765.149 568.834 762.693 569.766 760.433L568.634 747.929H580.504L581.401 759.895L586.245 762.034Z" fill="white" stroke="#263238" stroke-linecap="round" stroke-linejoin="round"/>
<path d="M592.152 767.803C592.199 767.982 592.203 768.17 592.166 768.351C592.129 768.532 592.051 768.703 591.937 768.849C591.824 768.996 591.679 769.114 591.513 769.196C591.347 769.278 591.164 769.321 590.979 769.321H570.677C570.194 769.321 569.728 769.144 569.367 768.824C569.006 768.503 568.774 768.062 568.717 767.582C568.473 765.149 568.834 762.693 569.766 760.433C571.671 760.115 570.442 764.242 573.575 761.703C576.708 759.163 581.401 759.895 581.401 759.895L586.245 762.034C588.136 762.821 591.048 764.09 592.152 767.803Z" fill="#BFBFBF" stroke="#263238" stroke-linecap="round" stroke-linejoin="round"/>
<path d="M592.042 767.513C592.042 767.624 592.125 767.706 592.152 767.803C592.199 767.982 592.203 768.17 592.166 768.351C592.129 768.532 592.051 768.703 591.937 768.849C591.824 768.996 591.679 769.114 591.513 769.196C591.347 769.278 591.164 769.321 590.979 769.321H570.677C570.194 769.321 569.728 769.144 569.367 768.824C569.006 768.503 568.775 768.062 568.717 767.582V767.513H592.042Z" fill="white" stroke="#263238" stroke-linecap="round" stroke-linejoin="round"/>
<path d="M573.106 595.392C573.106 595.392 575.176 611.306 575.48 616.647C575.646 619.808 575.369 626.156 575.48 629.317C575.866 641.49 577.385 665.822 578.585 677.926C579.206 684.303 581.566 696.931 581.994 703.322C582.878 716.337 581.994 755.519 581.994 755.519H567.296C567.296 755.519 561.333 711.354 559.787 696.531C559.235 691.273 553.135 639.02 548.981 627.633C548.194 625.452 546.4 621.795 545.654 619.601C544.168 614.998 543.087 610.273 542.425 605.481C542.204 602.97 542.052 595.42 542.052 595.42L573.106 595.392Z" fill="#263238" stroke="#263238" stroke-linecap="round" stroke-linejoin="round"/>
<path d="M575.811 684.372C575.811 684.372 573.051 689.382 563.39 689.382" stroke="#7F7F7F" stroke-linecap="round" stroke-linejoin="round"/>
<path d="M548.705 628.682C547.918 626.598 546.124 623.161 545.378 621.022C544.233 617.806 542.425 605.44 542.052 595.379" stroke="#7F7F7F" stroke-linecap="round" stroke-linejoin="round"/>
<path d="M561.899 700.271C564.703 714.172 570.163 727.401 577.978 739.234" stroke="#7F7F7F" stroke-linecap="round" stroke-linejoin="round"/>
<path d="M520.494 698.298C521.431 711.207 524.788 723.825 530.39 735.493" stroke="#7F7F7F" stroke-linecap="round" stroke-linejoin="round"/>
<path d="M560.05 491.659H597.563C600.502 491.659 602.89 495.068 602.89 499.278V511.961C602.89 516.102 600.502 519.566 597.563 519.566H567.641L555.564 527.599L560.05 519.566C557.11 519.566 554.736 516.157 554.736 511.961V499.278C554.736 495.068 557.11 491.659 560.05 491.659Z" fill="white" stroke="#263238" stroke-linecap="round" stroke-linejoin="round"/>
<path d="M594.43 499.443H562.7" stroke="#263238" stroke-linecap="round" stroke-linejoin="round"/>
<path d="M594.43 505.074H565.142" stroke="#263238" stroke-linecap="round" stroke-linejoin="round"/>
<path d="M594.43 510.719H562.7" stroke="#263238" stroke-linecap="round" stroke-linejoin="round"/>
<path d="M196.21 543.774L121.846 553.311C118.035 553.8 114.164 553.5 110.473 552.43C106.783 551.359 103.352 549.541 100.394 547.088C97.4362 544.635 95.0146 541.6 93.2797 538.171C91.5448 534.742 90.5338 530.993 90.3096 527.157L83.0499 404.101C82.8023 399.958 83.4786 395.812 85.0301 391.963C86.5815 388.113 88.9692 384.656 92.0204 381.843C95.0717 379.03 98.7101 376.929 102.673 375.695C106.635 374.46 110.822 374.121 114.932 374.704L201.247 386.877C208.146 387.851 214.434 391.359 218.886 396.718C223.339 402.076 225.637 408.9 225.331 415.86L220.639 517.22C220.348 523.815 217.737 530.095 213.268 534.953C208.799 539.811 202.758 542.935 196.21 543.774Z" fill="#C53F3F"/>
<path opacity="0.3" d="M220.639 517.275C220.335 523.86 217.719 530.127 213.251 534.974C208.783 539.821 202.749 542.937 196.21 543.774L121.846 553.311C118.035 553.8 114.164 553.5 110.473 552.43C106.783 551.359 103.352 549.541 100.394 547.088C97.4362 544.635 95.0146 541.6 93.2797 538.171C91.5448 534.742 90.5338 530.993 90.3096 527.157L83.0499 404.101C82.8023 399.958 83.4786 395.812 85.0301 391.963C86.5815 388.113 88.9692 384.656 92.0204 381.843C95.0717 379.03 98.7101 376.929 102.673 375.695C106.635 374.46 110.822 374.121 114.932 374.704L201.247 386.877C208.146 387.851 214.434 391.359 218.886 396.718C223.339 402.076 225.637 408.9 225.331 415.86L220.639 517.275Z" fill="white"/>
<path d="M110.046 420.249H144.647C146.215 420.374 147.69 421.047 148.813 422.15C149.935 423.252 150.635 424.714 150.789 426.281L158.945 499.83C159.255 502.672 160.605 505.3 162.734 507.209C164.864 509.117 167.624 510.17 170.484 510.167" stroke="#263238" stroke-linecap="round" stroke-linejoin="round"/>
<path d="M204.077 519.428V526.205H121.957C119.039 526.204 116.229 525.104 114.086 523.124C111.943 521.145 110.623 518.43 110.391 515.522L103.256 427.26C103.184 426.339 103.309 425.413 103.623 424.544C103.937 423.675 104.432 422.883 105.076 422.219C105.719 421.556 106.496 421.038 107.356 420.698C108.215 420.358 109.137 420.205 110.06 420.249C111.627 420.375 113.1 421.048 114.22 422.151C115.341 423.254 116.037 424.716 116.188 426.281L124.344 499.83C124.661 502.675 126.016 505.303 128.15 507.211C130.284 509.118 133.048 510.171 135.91 510.167H194.83C197.283 510.171 199.635 511.148 201.369 512.884C203.103 514.621 204.077 516.974 204.077 519.428V519.428Z" stroke="#263238" stroke-linecap="round" stroke-linejoin="round"/>
<path d="M186.204 591.445H165.225V523.817H154.405V591.445H133.426C131.687 591.445 130.02 592.136 128.79 593.365C127.561 594.595 126.87 596.262 126.87 598.001H192.759C192.761 597.14 192.593 596.286 192.264 595.49C191.935 594.694 191.452 593.97 190.843 593.361C190.234 592.752 189.511 592.269 188.715 591.94C187.918 591.612 187.065 591.443 186.204 591.445V591.445Z" stroke="#263238" stroke-linecap="round" stroke-linejoin="round"/>
<path d="M165.225 547.763V526.205H154.405V549.129" stroke="#263238" stroke-linecap="round" stroke-linejoin="round"/>
<path d="M203.304 572.592L204.353 587.512L215.629 587.18L215.008 571.074L203.304 572.592Z" fill="white" stroke="#263238" stroke-linecap="round" stroke-linejoin="round"/>
<path d="M203.525 593.06C203.525 593.06 221.646 593.791 227.622 593.06C229.486 592.839 233.833 592.798 234.896 591.252C235.42 590.507 234.482 587.65 234.482 587.65L225.028 584.779L218.5 581.191C217.994 580.909 217.413 580.794 216.838 580.861C216.264 580.928 215.725 581.173 215.298 581.563L214.552 582.239C214.245 582.519 214.005 582.863 213.85 583.248C213.695 583.633 213.628 584.048 213.655 584.462V584.779L212.579 584.034C212.113 583.709 211.559 583.535 210.991 583.537H203.193C201.831 585.78 201.186 588.384 201.344 591.004C201.369 591.562 201.611 592.09 202.018 592.474C202.425 592.857 202.965 593.068 203.525 593.06Z" fill="#263238" stroke="#263238" stroke-linecap="round" stroke-linejoin="round"/>
<path d="M166.895 555.395L159.415 567.734L168.496 574.414L177.067 561.413L166.895 555.395Z" fill="white" stroke="#263238" stroke-linecap="round" stroke-linejoin="round"/>
<path d="M198.294 500.589C198.294 500.589 185.955 506.33 163.251 559.384C164.496 561.426 166.175 563.17 168.169 564.491C170.163 565.813 172.423 566.679 174.79 567.03C174.79 567.03 229.058 500.147 222.129 488.361C215.629 477.319 155.233 481.46 155.233 481.46L156.019 507.959C156.019 507.959 192.345 506.109 198.294 500.589Z" fill="#C53F3F" stroke="#263238" stroke-linecap="round" stroke-linejoin="round"/>
<path d="M170.635 357.755C170.635 357.755 159.787 349.598 149.174 356.665C138.56 363.731 131.839 380.431 137.511 387.029C139.225 388.974 141.357 390.507 143.747 391.514C146.137 392.52 148.723 392.973 151.313 392.839C151.313 392.839 162.065 401.12 166.495 399.74C170.925 398.36 178.433 386.849 178.765 376.539C179.096 366.229 182.436 358.625 170.635 357.755Z" fill="#263238" stroke="#263238" stroke-linecap="round" stroke-linejoin="round"/>
<path d="M159.842 394.316C159.842 394.316 156.834 398.456 156.985 401.99L142.825 397.076C142.825 397.076 148.746 388.478 150.154 380.059C151.561 371.64 159.842 394.316 159.842 394.316Z" fill="white"/>
<path d="M149.836 383.882C150.057 388.146 151.216 389.955 154.763 393.543C158.904 397.683 161.568 401.023 167.571 393.543C171.546 388.574 172.775 385.414 173.092 383.882H149.836Z" fill="#263238" stroke="#263238" stroke-linecap="round" stroke-linejoin="round"/>
<path d="M159.842 394.316C159.842 394.316 156.834 398.456 156.985 401.99L142.825 397.076C142.825 397.076 148.746 388.478 150.154 380.059C151.561 371.64 159.842 394.316 159.842 394.316Z" stroke="#263238" stroke-linecap="round" stroke-linejoin="round"/>
<path d="M128.747 483.088C128.747 483.088 118.258 505.985 135.938 509.794C153.618 513.604 190.965 505.295 190.965 505.295C190.965 505.295 194.002 534.858 202.614 577.782C207.308 578.227 212.045 577.849 216.609 576.664C216.609 576.664 216.07 496.752 208.866 486.953C201.662 477.154 147.725 477.913 128.747 483.088Z" fill="#C53F3F" stroke="#263238" stroke-linecap="round" stroke-linejoin="round"/>
<path d="M126.097 483.116C126.097 483.116 128.706 486.042 146.013 480.19L167.82 479.348C167.82 479.348 175.963 442.47 173.34 428.737C171.875 420.762 169.921 412.885 167.489 405.15C155.942 400.779 143.555 399.085 131.259 400.195C130.593 400.262 129.981 400.59 129.556 401.107C129.132 401.625 128.93 402.29 128.996 402.956C130.072 413.224 133.26 446.762 126.097 483.116Z" fill="#263238" stroke="#263238" stroke-linecap="round" stroke-linejoin="round"/>
<path d="M167.599 405.15C167.599 405.15 176.653 407.165 176.653 417.958C176.653 428.751 175.604 446.279 175.604 446.279L187.308 462.137C187.308 462.137 182.298 464.898 181.539 469.576C181.539 469.576 164.038 455.181 163.044 450.254C162.051 445.327 167.599 405.15 167.599 405.15Z" fill="#263238" stroke="#263238" stroke-linecap="round" stroke-linejoin="round"/>
<path d="M169.476 443.533L170.345 446.748L167.93 444.457L160.698 432.284C160.577 432.077 160.542 431.83 160.601 431.598C160.661 431.365 160.81 431.166 161.016 431.042C161.223 430.921 161.469 430.886 161.702 430.945C161.935 431.005 162.134 431.154 162.258 431.36L169.476 443.533Z" fill="white" stroke="#263238" stroke-linecap="round" stroke-linejoin="round"/>
<path d="M150.609 445.534C152.725 444.067 154.621 442.306 156.24 440.303C158.517 437.322 159.277 435.569 161.071 436.163C162.865 436.756 169.352 438.481 168.386 440.551C168.417 441.437 168.128 442.304 167.571 442.994C167.118 443.927 166.457 444.744 165.639 445.382C164.356 446.321 163.942 445.92 163.942 445.92C163.942 445.92 163.044 446.666 162.465 446.472C162.465 446.472 161.085 448.888 156.461 449.812L144.039 455.112L142.77 447.135L150.609 445.534Z" fill="white" stroke="#263238" stroke-linecap="round" stroke-linejoin="round"/>
<path d="M159.359 438.854C159.908 439.363 160.499 439.825 161.126 440.234C161.968 440.759 164.921 442.304 164.825 443.284C164.728 444.264 162.713 446.169 162.064 446.045C161.416 445.92 159.097 445.051 159.152 444.526C158.941 444.934 158.792 445.372 158.711 445.824C158.708 446.433 158.585 447.036 158.348 447.597C158.111 448.159 157.765 448.668 157.331 449.095" stroke="#263238" stroke-linecap="round" stroke-linejoin="round"/>
<path d="M167.571 443.008C167.422 442.482 167.083 442.029 166.619 441.738C165.153 440.901 163.767 439.931 162.479 438.84" stroke="#263238" stroke-linecap="round" stroke-linejoin="round"/>
<path d="M168.386 440.565C168.06 440.243 167.694 439.964 167.295 439.737C165.784 438.719 164.186 437.837 162.52 437.101" stroke="#263238" stroke-linecap="round" stroke-linejoin="round"/>
<path d="M159.815 443.919C159.815 443.919 160.795 443.574 161.195 443.919C161.595 444.264 161.54 444.747 161.982 445.216" stroke="#263238" stroke-linecap="round" stroke-linejoin="round"/>
<path d="M161.154 443.891C160.547 443.48 160.031 442.949 159.635 442.332" stroke="#263238" stroke-linecap="round" stroke-linejoin="round"/>
<path d="M132.487 431.732C132.308 435.183 130.472 449.233 130.472 449.233C136.559 447.257 142.822 445.87 149.174 445.092C149.174 445.092 148.208 448.791 151.037 454.077C151.037 454.077 125.007 464.29 119.652 463.2C114.297 462.11 115.166 450.558 117.223 424.9C119.279 399.243 131.37 400.209 131.37 400.209" fill="#263238"/>
<path d="M132.487 431.732C132.308 435.183 130.472 449.233 130.472 449.233C136.559 447.257 142.822 445.87 149.174 445.092C149.174 445.092 148.208 448.791 151.037 454.077C151.037 454.077 125.007 464.29 119.652 463.2C114.297 462.11 115.166 450.558 117.223 424.9C119.279 399.243 131.37 400.209 131.37 400.209" stroke="#263238" stroke-linecap="round" stroke-linejoin="round"/>
<path d="M149.891 454.063C149.891 454.063 139.237 458.204 130.155 460.964" stroke="#7F7F7F" stroke-linecap="round" stroke-linejoin="round"/>
<path d="M131.342 431.732C131.163 435.183 129.327 449.233 129.327 449.233C135.409 447.256 141.667 445.87 148.014 445.092" stroke="#7F7F7F" stroke-linecap="round" stroke-linejoin="round"/>
<path d="M139.609 399.837C139.609 399.837 142.659 397.973 142.659 395.503C142.659 393.032 156.282 400.223 159.401 399.809C162.52 399.395 160.781 402.086 160.45 402.845C159.663 405.357 157.4 408.463 139.609 399.837Z" fill="#263238" stroke="#263238" stroke-linecap="round" stroke-linejoin="round"/>
<path d="M160.436 402.845C159.635 405.164 157.565 408.131 142.231 401.134" stroke="#7F7F7F" stroke-linecap="round" stroke-linejoin="round"/>
<path d="M175.121 372.426L173.741 380.997C173.741 380.997 173.975 384.42 167.985 391.901C161.995 399.381 159.29 396.041 155.177 391.901C151.065 387.76 150.181 385.966 150.209 380.045C150.209 380.045 148.097 379.741 146.8 375.904C145.502 372.068 150.236 370.577 151.437 373.02L158.517 369.473L162.934 364.159L165.46 360.792L170.635 362.724L176.156 366.036L175.121 372.426Z" fill="white" stroke="#263238" stroke-linecap="round" stroke-linejoin="round"/>
<path d="M168.786 381.273C168.786 381.273 166.578 383.537 168.427 385.717C170.925 388.685 165.667 387.774 165.667 388.657" stroke="#263238" stroke-linecap="round" stroke-linejoin="round"/>
<path d="M162.893 389.637C162.893 389.637 161.195 390.065 158.255 387.139" stroke="#263238" stroke-linecap="round" stroke-linejoin="round"/>
<path d="M163.859 380.804C163.541 381.535 163.044 382.032 162.755 381.908C162.465 381.784 162.492 381.08 162.755 380.349C163.017 379.617 163.569 379.12 163.859 379.244C164.149 379.369 164.176 380.059 163.859 380.804Z" fill="#263238"/>
<path d="M170.332 383.744C170.056 384.406 169.614 384.848 169.352 384.737C169.09 384.627 169.103 383.992 169.352 383.357C169.6 382.722 170.069 382.239 170.332 382.364C170.594 382.488 170.622 383.081 170.332 383.744Z" fill="#263238"/>
<path d="M167.378 375.311C166.685 374.804 165.849 374.531 164.99 374.531C164.132 374.531 163.296 374.804 162.603 375.311" stroke="#263238" stroke-linecap="round" stroke-linejoin="round"/>
<path d="M171.836 377.837C172.18 377.954 172.487 378.158 172.729 378.429C172.971 378.699 173.138 379.028 173.216 379.382" stroke="#263238" stroke-linecap="round" stroke-linejoin="round"/>
<path d="M151.782 369.473C151.782 369.473 148.677 377.367 152.969 380.79C152.969 380.79 156.53 370.618 163.9 369.473C171.27 368.327 174.293 366.036 174.293 366.036C174.293 366.036 173.409 376.084 175.425 378.554C177.44 381.025 177.398 366.989 177.398 366.989L175.425 362.172L164.742 357.962L155.592 362.255L151.782 369.473Z" fill="#263238" stroke="#263238" stroke-linecap="round" stroke-linejoin="round"/>
<path d="M149.891 381.37C149.891 381.37 148.428 390.148 151.782 391.031C155.136 391.914 146.979 392.08 142.756 390.134C138.533 388.188 148.346 380.28 148.346 380.28L149.891 381.37Z" fill="#263238" stroke="#263238" stroke-linecap="round" stroke-linejoin="round"/>
<path d="M169.103 443.036H170.691L165.418 476.353H163.831C163.624 476.357 163.419 476.315 163.23 476.229C163.042 476.143 162.875 476.016 162.743 475.857C162.61 475.698 162.515 475.511 162.465 475.31C162.414 475.109 162.409 474.9 162.451 474.697L167.199 444.692C167.282 444.241 167.516 443.832 167.862 443.532C168.208 443.231 168.645 443.056 169.103 443.036Z" fill="white" stroke="#263238" stroke-linecap="round" stroke-linejoin="round"/>
<path d="M164.921 476.353H184.244C184.706 476.341 185.149 476.169 185.499 475.867C185.848 475.565 186.083 475.152 186.162 474.697L190.91 444.692C190.951 444.489 190.947 444.28 190.896 444.079C190.846 443.878 190.751 443.691 190.618 443.532C190.486 443.373 190.319 443.246 190.13 443.16C189.942 443.074 189.737 443.032 189.53 443.036H170.263C169.802 443.051 169.36 443.223 169.01 443.525C168.661 443.826 168.426 444.238 168.344 444.692L163.596 474.697C163.556 474.895 163.56 475.1 163.607 475.297C163.654 475.493 163.745 475.677 163.871 475.835C163.997 475.993 164.157 476.122 164.339 476.211C164.52 476.301 164.719 476.349 164.921 476.353Z" fill="white" stroke="#263238" stroke-linecap="round" stroke-linejoin="round"/>
<path d="M185.237 448.915H186.99C187.285 448.906 187.567 448.796 187.788 448.602C188.01 448.408 188.157 448.143 188.205 447.853L188.495 446.1C188.52 445.97 188.515 445.835 188.481 445.707C188.447 445.579 188.385 445.46 188.298 445.36C188.212 445.259 188.105 445.179 187.983 445.125C187.862 445.072 187.73 445.046 187.598 445.051H185.845C185.552 445.061 185.271 445.17 185.047 445.361C184.824 445.551 184.672 445.812 184.616 446.1L184.34 447.853C184.313 447.984 184.316 448.119 184.349 448.249C184.382 448.379 184.444 448.5 184.53 448.602C184.617 448.705 184.725 448.786 184.848 448.84C184.97 448.895 185.104 448.92 185.237 448.915V448.915Z" stroke="#263238" stroke-linecap="round" stroke-linejoin="round"/>
<path d="M185.721 446.983C185.704 447.069 185.707 447.158 185.729 447.242C185.752 447.327 185.793 447.406 185.85 447.472C185.907 447.538 185.979 447.591 186.059 447.626C186.139 447.661 186.227 447.677 186.314 447.673C186.505 447.662 186.686 447.588 186.831 447.464C186.976 447.339 187.075 447.17 187.115 446.983C187.131 446.896 187.128 446.807 187.105 446.722C187.083 446.637 187.042 446.557 186.985 446.49C186.928 446.423 186.857 446.369 186.777 446.332C186.697 446.296 186.609 446.278 186.521 446.279C186.328 446.291 186.145 446.367 186 446.494C185.855 446.621 185.757 446.794 185.721 446.983V446.983Z" stroke="#263238" stroke-linecap="round" stroke-linejoin="round"/>
<path d="M187.032 465.256C187.032 465.256 188.867 459.901 190.234 461.116C191.31 462.096 189.475 465.256 189.475 465.256H187.032Z" fill="white" stroke="#263238" stroke-linecap="round" stroke-linejoin="round"/>
<path d="M191.503 467.327C191.821 466.719 192.884 465.325 192.47 464.746C191.793 463.669 188.633 463.931 187.418 464.29C186.632 464.45 185.891 464.785 185.251 465.27C185.072 465.519 184.823 466.25 185.03 466.471C185.238 466.692 186.604 466.292 187.128 466.278C188.058 466.354 188.98 466.497 189.889 466.706C188.86 467.029 187.808 467.273 186.742 467.437C185.638 467.437 181.594 466.761 182.601 469.107C182.601 469.107 181.111 469.563 181.967 470.681C182.822 471.798 185.721 471.702 185.721 471.702C185.059 471.887 184.378 471.989 183.692 472.005C182.532 472.005 181.635 471.122 181.525 471.743C181.359 472.696 182.229 473.496 183.457 473.951C184.059 474.209 184.707 474.342 185.362 474.342C186.016 474.342 186.664 474.209 187.266 473.951C189.323 473.206 190.62 469.079 191.503 467.327Z" fill="white" stroke="#263238" stroke-linecap="round" stroke-linejoin="round"/>
<path d="M183.526 469.466C184.595 469.699 185.679 469.861 186.769 469.949C187.523 469.965 188.271 469.819 188.964 469.521" stroke="#263238" stroke-linecap="round" stroke-linejoin="round"/>
<path d="M174.141 440.938C174.496 436.872 174.39 432.779 173.824 428.737C172.305 420.622 170.539 413.845 169.338 409.677" stroke="#7F7F7F" stroke-linecap="round" stroke-linejoin="round"/>
<path d="M154.28 570.549C154.28 570.549 166.55 583.841 171.27 587.539C172.747 588.699 175.839 591.68 177.66 591.418C178.558 591.266 179.896 588.588 179.896 588.588L175.273 579.893L173.175 572.772C173.015 572.22 172.687 571.732 172.237 571.376C171.786 571.02 171.236 570.813 170.663 570.784H169.655C169.247 570.765 168.84 570.837 168.463 570.994C168.086 571.152 167.748 571.391 167.475 571.695L167.254 571.943L167.019 570.646C166.917 570.091 166.648 569.58 166.246 569.183L160.726 563.662C158.199 564.277 155.921 565.649 154.198 567.596C153.826 568.003 153.626 568.538 153.642 569.089C153.657 569.641 153.886 570.164 154.28 570.549Z" fill="#263238" stroke="#263238" stroke-linecap="round" stroke-linejoin="round"/>
<path d="M192.539 502.135C192.539 502.135 196.431 496.779 198.57 495.717" stroke="#263238" stroke-linecap="round" stroke-linejoin="round"/>
<path d="M184.589 336.514C183.888 336.505 183.217 336.228 182.712 335.742C177.247 330.287 169.841 327.223 162.12 327.223C154.398 327.223 146.993 330.287 141.528 335.742C141.027 336.226 140.357 336.494 139.661 336.487C138.964 336.481 138.299 336.201 137.807 335.708C137.316 335.215 137.039 334.548 137.035 333.852C137.031 333.156 137.301 332.486 137.787 331.987C144.253 325.557 153.001 321.947 162.12 321.947C171.239 321.947 179.987 325.557 186.452 331.987C186.823 332.357 187.076 332.829 187.18 333.342C187.283 333.856 187.231 334.389 187.032 334.873C186.833 335.358 186.494 335.772 186.059 336.064C185.624 336.356 185.113 336.513 184.589 336.514Z" fill="#C53F3F" stroke="#263238" stroke-linecap="round" stroke-linejoin="round"/>
<path d="M177.536 343.567C177.187 343.566 176.841 343.496 176.519 343.361C176.197 343.226 175.905 343.029 175.659 342.78C172.067 339.192 167.197 337.176 162.12 337.176C157.042 337.176 152.172 339.192 148.58 342.78C148.355 343.084 148.067 343.336 147.736 343.52C147.405 343.703 147.039 343.814 146.661 343.844C146.284 343.873 145.905 343.822 145.549 343.693C145.194 343.565 144.87 343.361 144.599 343.096C144.328 342.832 144.118 342.512 143.981 342.16C143.844 341.807 143.785 341.429 143.806 341.051C143.828 340.673 143.93 340.305 144.106 339.97C144.282 339.635 144.527 339.341 144.826 339.109C147.097 336.838 149.793 335.037 152.761 333.808C155.728 332.578 158.908 331.946 162.12 331.946C165.331 331.946 168.512 332.578 171.479 333.808C174.446 335.037 177.142 336.838 179.413 339.109C179.778 339.482 180.026 339.955 180.125 340.467C180.224 340.98 180.17 341.51 179.97 341.993C179.77 342.475 179.433 342.888 179 343.18C178.567 343.472 178.058 343.631 177.536 343.636V343.567Z" fill="#C53F3F" stroke="#263238" stroke-linecap="round" stroke-linejoin="round"/>
<path d="M171.367 349.736C171.018 349.741 170.672 349.675 170.349 349.542C170.027 349.409 169.734 349.213 169.49 348.964C167.532 347.015 164.882 345.921 162.12 345.921C159.357 345.921 156.708 347.015 154.75 348.964C154.244 349.41 153.588 349.646 152.914 349.625C152.24 349.604 151.599 349.327 151.123 348.85C150.646 348.374 150.369 347.733 150.348 347.059C150.327 346.385 150.563 345.729 151.009 345.223C153.959 342.282 157.954 340.63 162.12 340.63C166.285 340.63 170.281 342.282 173.23 345.223C173.477 345.468 173.672 345.76 173.806 346.081C173.94 346.402 174.008 346.746 174.008 347.093C174.008 347.441 173.94 347.785 173.806 348.106C173.672 348.427 173.477 348.719 173.23 348.964C172.987 349.211 172.697 349.407 172.377 349.54C172.057 349.672 171.713 349.739 171.367 349.736Z" fill="#C53F3F" stroke="#263238" stroke-linecap="round" stroke-linejoin="round"/>
</svg>
